<svg width="199" height="54" viewBox="0 0 199 54" fill="none" xmlns="http://www.w3.org/2000/svg">
<rect x="2" y="3" width="197" height="51" fill="#45D354"/>
<rect width="192" height="49" fill="#00A023"/>
<rect width="198" height="54" fill="#00A023"/>
<path d="M22.8 33.192C22.368 33.192 22.016 33.088 21.744 32.88C21.488 32.672 21.28 32.344 21.12 31.896L16.104 17.712C15.928 17.2 15.96 16.768 16.2 16.416C16.456 16.064 16.88 15.888 17.472 15.888C17.904 15.888 18.24 15.992 18.48 16.2C18.72 16.392 18.912 16.704 19.056 17.136L23.376 29.952H22.416L26.928 17.16C27.088 16.728 27.288 16.408 27.528 16.2C27.768 15.992 28.08 15.888 28.464 15.888C28.848 15.888 29.152 15.992 29.376 16.2C29.6 16.408 29.792 16.736 29.952 17.184L34.32 29.952H33.48L37.872 17.136C38.016 16.72 38.208 16.408 38.448 16.2C38.688 15.992 39.016 15.888 39.432 15.888C39.944 15.888 40.32 16.064 40.56 16.416C40.8 16.768 40.832 17.2 40.656 17.712L35.592 31.92C35.432 32.352 35.224 32.672 34.968 32.88C34.712 33.088 34.368 33.192 33.936 33.192C33.504 33.192 33.16 33.088 32.904 32.88C32.648 32.672 32.44 32.344 32.28 31.896L28.104 19.992H28.656L24.432 31.92C24.272 32.352 24.064 32.672 23.808 32.88C23.568 33.088 23.232 33.192 22.8 33.192ZM45.9621 33.192C45.4821 33.192 45.1141 33.064 44.8581 32.808C44.6021 32.536 44.4741 32.152 44.4741 31.656V17.4C44.4741 16.904 44.6021 16.528 44.8581 16.272C45.1141 16.016 45.4821 15.888 45.9621 15.888C46.4421 15.888 46.8101 16.016 47.0661 16.272C47.3381 16.528 47.4741 16.904 47.4741 17.4V23.616H47.1381C47.4901 22.768 48.0341 22.128 48.7701 21.696C49.5221 21.248 50.3701 21.024 51.3141 21.024C52.2581 21.024 53.0341 21.2 53.6421 21.552C54.2501 21.904 54.7061 22.44 55.0101 23.16C55.3141 23.864 55.4661 24.76 55.4661 25.848V31.656C55.4661 32.152 55.3381 32.536 55.0821 32.808C54.8261 33.064 54.4581 33.192 53.9781 33.192C53.4981 33.192 53.1221 33.064 52.8501 32.808C52.5941 32.536 52.4661 32.152 52.4661 31.656V25.992C52.4661 25.08 52.2901 24.416 51.9381 24C51.6021 23.584 51.0741 23.376 50.3541 23.376C49.4741 23.376 48.7701 23.656 48.2421 24.216C47.7301 24.76 47.4741 25.488 47.4741 26.4V31.656C47.4741 32.68 46.9701 33.192 45.9621 33.192ZM62.3771 33.24C61.5291 33.24 60.7691 33.08 60.0971 32.76C59.4411 32.424 58.9211 31.976 58.5371 31.416C58.1691 30.856 57.9851 30.224 57.9851 29.52C57.9851 28.656 58.2091 27.976 58.6571 27.48C59.1051 26.968 59.8331 26.6 60.8411 26.376C61.8491 26.152 63.2011 26.04 64.8971 26.04H66.0971V27.768H64.9211C63.9291 27.768 63.1371 27.816 62.5451 27.912C61.9531 28.008 61.5291 28.176 61.2731 28.416C61.0331 28.64 60.9131 28.96 60.9131 29.376C60.9131 29.904 61.0971 30.336 61.4651 30.672C61.8331 31.008 62.3451 31.176 63.0011 31.176C63.5291 31.176 63.9931 31.056 64.3931 30.816C64.8091 30.56 65.1371 30.216 65.3771 29.784C65.6171 29.352 65.7371 28.856 65.7371 28.296V25.536C65.7371 24.736 65.5611 24.16 65.2091 23.808C64.8571 23.456 64.2651 23.28 63.4331 23.28C62.9691 23.28 62.4651 23.336 61.9211 23.448C61.3931 23.56 60.8331 23.752 60.2411 24.024C59.9371 24.168 59.6651 24.208 59.4251 24.144C59.2011 24.08 59.0251 23.952 58.8971 23.76C58.7691 23.552 58.7051 23.328 58.7051 23.088C58.7051 22.848 58.7691 22.616 58.8971 22.392C59.0251 22.152 59.2411 21.976 59.5451 21.864C60.2811 21.56 60.9851 21.344 61.6571 21.216C62.3451 21.088 62.9691 21.024 63.5291 21.024C64.6811 21.024 65.6251 21.2 66.3611 21.552C67.1131 21.904 67.6731 22.44 68.0411 23.16C68.4091 23.864 68.5931 24.776 68.5931 25.896V31.656C68.5931 32.152 68.4731 32.536 68.2331 32.808C67.9931 33.064 67.6491 33.192 67.2011 33.192C66.7531 33.192 66.4011 33.064 66.1451 32.808C65.9051 32.536 65.7851 32.152 65.7851 31.656V30.504H65.9771C65.8651 31.064 65.6411 31.552 65.3051 31.968C64.9851 32.368 64.5771 32.68 64.0811 32.904C63.5851 33.128 63.0171 33.24 62.3771 33.24ZM77.0141 33.24C75.9741 33.24 75.1021 33.064 74.3981 32.712C73.7101 32.36 73.1981 31.848 72.8621 31.176C72.5261 30.488 72.3581 29.64 72.3581 28.632V23.52H71.1101C70.7261 23.52 70.4301 23.424 70.2221 23.232C70.0141 23.024 69.9101 22.744 69.9101 22.392C69.9101 22.024 70.0141 21.744 70.2221 21.552C70.4301 21.36 70.7261 21.264 71.1101 21.264H72.3581V19.08C72.3581 18.584 72.4861 18.208 72.7421 17.952C73.0141 17.696 73.3901 17.568 73.8701 17.568C74.3501 17.568 74.7181 17.696 74.9741 17.952C75.2301 18.208 75.3581 18.584 75.3581 19.08V21.264H77.9021C78.2861 21.264 78.5821 21.36 78.7901 21.552C78.9981 21.744 79.1021 22.024 79.1021 22.392C79.1021 22.744 78.9981 23.024 78.7901 23.232C78.5821 23.424 78.2861 23.52 77.9021 23.52H75.3581V28.464C75.3581 29.232 75.5261 29.808 75.8621 30.192C76.1981 30.576 76.7421 30.768 77.4941 30.768C77.7661 30.768 78.0061 30.744 78.2141 30.696C78.4221 30.648 78.6061 30.616 78.7661 30.6C78.9581 30.584 79.1181 30.648 79.2461 30.792C79.3741 30.92 79.4381 31.192 79.4381 31.608C79.4381 31.928 79.3821 32.216 79.2701 32.472C79.1741 32.712 78.9901 32.88 78.7181 32.976C78.5101 33.04 78.2381 33.096 77.9021 33.144C77.5661 33.208 77.2701 33.24 77.0141 33.24ZM85.1451 33.24C84.4571 33.24 83.7291 33.168 82.9611 33.024C82.1931 32.88 81.5051 32.632 80.8971 32.28C80.6411 32.12 80.4571 31.936 80.3451 31.728C80.2491 31.504 80.2091 31.288 80.2251 31.08C80.2571 30.856 80.3371 30.664 80.4651 30.504C80.6091 30.344 80.7851 30.24 80.9931 30.192C81.2171 30.144 81.4571 30.184 81.7131 30.312C82.3531 30.616 82.9531 30.832 83.5131 30.96C84.0731 31.072 84.6251 31.128 85.1691 31.128C85.9371 31.128 86.5051 31 86.8731 30.744C87.2571 30.472 87.4491 30.12 87.4491 29.688C87.4491 29.32 87.3211 29.04 87.0651 28.848C86.8251 28.64 86.4571 28.488 85.9611 28.392L83.5611 27.936C82.5691 27.744 81.8091 27.384 81.2811 26.856C80.7691 26.312 80.5131 25.616 80.5131 24.768C80.5131 24 80.7211 23.336 81.1371 22.776C81.5691 22.216 82.1611 21.784 82.9131 21.48C83.6651 21.176 84.5291 21.024 85.5051 21.024C86.2091 21.024 86.8651 21.104 87.4731 21.264C88.0971 21.408 88.6971 21.64 89.2731 21.96C89.5131 22.088 89.6731 22.256 89.7531 22.464C89.8491 22.672 89.8731 22.888 89.8251 23.112C89.7771 23.32 89.6811 23.512 89.5371 23.688C89.3931 23.848 89.2091 23.952 88.9851 24C88.7771 24.032 88.5371 23.984 88.2651 23.856C87.7691 23.6 87.2891 23.416 86.8251 23.304C86.3771 23.192 85.9451 23.136 85.5291 23.136C84.7451 23.136 84.1611 23.272 83.7771 23.544C83.4091 23.816 83.2251 24.176 83.2251 24.624C83.2251 24.96 83.3371 25.24 83.5611 25.464C83.7851 25.688 84.1291 25.84 84.5931 25.92L86.9931 26.376C88.0331 26.568 88.8171 26.92 89.3451 27.432C89.8891 27.944 90.1611 28.632 90.1611 29.496C90.1611 30.664 89.7051 31.584 88.7931 32.256C87.8811 32.912 86.6651 33.24 85.1451 33.24ZM96.4318 33.24C95.5838 33.24 94.8238 33.08 94.1518 32.76C93.4958 32.424 92.9758 31.976 92.5918 31.416C92.2238 30.856 92.0398 30.224 92.0398 29.52C92.0398 28.656 92.2638 27.976 92.7118 27.48C93.1598 26.968 93.8878 26.6 94.8958 26.376C95.9038 26.152 97.2558 26.04 98.9518 26.04H100.152V27.768H98.9758C97.9838 27.768 97.1918 27.816 96.5998 27.912C96.0078 28.008 95.5838 28.176 95.3278 28.416C95.0878 28.64 94.9678 28.96 94.9678 29.376C94.9678 29.904 95.1518 30.336 95.5198 30.672C95.8878 31.008 96.3998 31.176 97.0558 31.176C97.5838 31.176 98.0478 31.056 98.4478 30.816C98.8638 30.56 99.1918 30.216 99.4318 29.784C99.6718 29.352 99.7918 28.856 99.7918 28.296V25.536C99.7918 24.736 99.6158 24.16 99.2638 23.808C98.9118 23.456 98.3198 23.28 97.4878 23.28C97.0238 23.28 96.5198 23.336 95.9758 23.448C95.4478 23.56 94.8878 23.752 94.2958 24.024C93.9918 24.168 93.7198 24.208 93.4798 24.144C93.2558 24.08 93.0798 23.952 92.9518 23.76C92.8238 23.552 92.7598 23.328 92.7598 23.088C92.7598 22.848 92.8238 22.616 92.9518 22.392C93.0798 22.152 93.2958 21.976 93.5998 21.864C94.3358 21.56 95.0398 21.344 95.7118 21.216C96.3998 21.088 97.0238 21.024 97.5838 21.024C98.7358 21.024 99.6798 21.2 100.416 21.552C101.168 21.904 101.728 22.44 102.096 23.16C102.464 23.864 102.648 24.776 102.648 25.896V31.656C102.648 32.152 102.528 32.536 102.288 32.808C102.048 33.064 101.704 33.192 101.256 33.192C100.808 33.192 100.456 33.064 100.2 32.808C99.9598 32.536 99.8398 32.152 99.8398 31.656V30.504H100.032C99.9198 31.064 99.6958 31.552 99.3598 31.968C99.0398 32.368 98.6318 32.68 98.1358 32.904C97.6398 33.128 97.0718 33.24 96.4318 33.24ZM107.181 37.512C106.701 37.512 106.333 37.384 106.077 37.128C105.821 36.872 105.693 36.496 105.693 36V22.584C105.693 22.088 105.821 21.712 106.077 21.456C106.333 21.2 106.693 21.072 107.157 21.072C107.637 21.072 108.005 21.2 108.261 21.456C108.517 21.712 108.645 22.088 108.645 22.584V24.456L108.381 23.736C108.621 22.92 109.109 22.264 109.845 21.768C110.597 21.272 111.469 21.024 112.461 21.024C113.485 21.024 114.381 21.272 115.149 21.768C115.933 22.264 116.541 22.968 116.973 23.88C117.405 24.776 117.621 25.856 117.621 27.12C117.621 28.368 117.405 29.456 116.973 30.384C116.541 31.296 115.941 32 115.173 32.496C114.405 32.992 113.501 33.24 112.461 33.24C111.485 33.24 110.629 33 109.893 32.52C109.157 32.024 108.661 31.384 108.405 30.6H108.693V36C108.693 36.496 108.557 36.872 108.285 37.128C108.029 37.384 107.661 37.512 107.181 37.512ZM111.621 30.96C112.213 30.96 112.733 30.816 113.181 30.528C113.629 30.24 113.973 29.816 114.213 29.256C114.469 28.68 114.597 27.968 114.597 27.12C114.597 25.84 114.325 24.888 113.781 24.264C113.237 23.624 112.517 23.304 111.621 23.304C111.029 23.304 110.509 23.448 110.061 23.736C109.613 24.008 109.261 24.432 109.005 25.008C108.765 25.568 108.645 26.272 108.645 27.12C108.645 28.384 108.917 29.344 109.461 30C110.005 30.64 110.725 30.96 111.621 30.96ZM121.571 37.512C121.091 37.512 120.723 37.384 120.467 37.128C120.211 36.872 120.083 36.496 120.083 36V22.584C120.083 22.088 120.211 21.712 120.467 21.456C120.723 21.2 121.083 21.072 121.547 21.072C122.027 21.072 122.395 21.2 122.651 21.456C122.907 21.712 123.035 22.088 123.035 22.584V24.456L122.771 23.736C123.011 22.92 123.499 22.264 124.235 21.768C124.987 21.272 125.859 21.024 126.851 21.024C127.875 21.024 128.771 21.272 129.539 21.768C130.323 22.264 130.931 22.968 131.363 23.88C131.795 24.776 132.011 25.856 132.011 27.12C132.011 28.368 131.795 29.456 131.363 30.384C130.931 31.296 130.331 32 129.563 32.496C128.795 32.992 127.891 33.24 126.851 33.24C125.875 33.24 125.019 33 124.283 32.52C123.547 32.024 123.051 31.384 122.795 30.6H123.083V36C123.083 36.496 122.947 36.872 122.675 37.128C122.419 37.384 122.051 37.512 121.571 37.512ZM126.011 30.96C126.603 30.96 127.123 30.816 127.571 30.528C128.019 30.24 128.363 29.816 128.603 29.256C128.859 28.68 128.987 27.968 128.987 27.12C128.987 25.84 128.715 24.888 128.171 24.264C127.627 23.624 126.907 23.304 126.011 23.304C125.419 23.304 124.899 23.448 124.451 23.736C124.003 24.008 123.651 24.432 123.395 25.008C123.155 25.568 123.035 26.272 123.035 27.12C123.035 28.384 123.307 29.344 123.851 30C124.395 30.64 125.115 30.96 126.011 30.96Z" fill="white"/>
<path d="M145.075 40.997L147.397 32.528C145.966 30.044 145.21 27.236 145.21 24.347C145.21 15.329 152.554 7.99402 161.563 7.99402C165.937 7.99402 170.041 9.69502 173.137 12.791C176.224 15.878 177.925 19.991 177.925 24.356C177.925 33.374 170.581 40.709 161.572 40.709H161.563C158.827 40.709 156.136 40.025 153.751 38.72L145.075 40.997ZM154.147 35.768L154.642 36.065C156.73 37.307 159.124 37.955 161.563 37.964H161.572C169.069 37.964 175.162 31.871 175.162 24.374C175.162 20.738 173.749 17.327 171.184 14.762C168.619 12.197 165.208 10.775 161.572 10.775C154.075 10.775 147.973 16.868 147.973 24.365C147.973 26.93 148.693 29.432 150.052 31.601L150.376 32.114L148.999 37.127L154.147 35.768Z" fill="white"/>
<path d="M145.642 40.4301L147.883 32.2491C146.497 29.8551 145.777 27.1371 145.777 24.3561C145.777 15.6531 152.86 8.57007 161.563 8.57007C165.784 8.57007 169.753 10.2171 172.732 13.1961C175.711 16.1841 177.358 20.1441 177.349 24.3651C177.349 33.0681 170.266 40.1511 161.563 40.1511H161.554C158.908 40.1511 156.316 39.4851 154.012 38.2341L145.642 40.4301Z" fill="url(#paint0_linear_815_300)"/>
<path d="M145.075 40.997L147.397 32.528C145.966 30.044 145.21 27.236 145.21 24.347C145.21 15.329 152.554 7.99402 161.563 7.99402C165.937 7.99402 170.041 9.69502 173.137 12.791C176.224 15.878 177.925 19.991 177.925 24.356C177.925 33.374 170.581 40.709 161.572 40.709H161.563C158.827 40.709 156.136 40.025 153.751 38.72L145.075 40.997ZM154.147 35.768L154.642 36.065C156.73 37.307 159.124 37.955 161.563 37.964H161.572C169.069 37.964 175.162 31.871 175.162 24.374C175.162 20.738 173.749 17.327 171.184 14.762C168.619 12.197 165.208 10.775 161.572 10.775C154.075 10.775 147.973 16.868 147.973 24.365C147.973 26.93 148.693 29.432 150.052 31.601L150.376 32.114L148.999 37.127L154.147 35.768Z" fill="url(#paint1_linear_815_300)"/>
<path d="M157.477 17.5161C157.171 16.8321 156.847 16.8231 156.559 16.8141C156.325 16.8051 156.046 16.8051 155.776 16.8051C155.506 16.8051 155.065 16.9041 154.687 17.3181C154.309 17.7231 153.256 18.7131 153.256 20.7291C153.256 22.7361 154.723 24.6801 154.921 24.9591C155.128 25.2291 157.747 29.4861 161.905 31.1241C165.361 32.4831 166.063 32.2131 166.81 32.1501C167.557 32.0781 169.231 31.1601 169.573 30.2061C169.915 29.2521 169.915 28.4331 169.807 28.2621C169.708 28.0911 169.429 27.9921 169.024 27.7851C168.619 27.5781 166.603 26.5881 166.234 26.4531C165.856 26.3181 165.586 26.2461 165.316 26.6601C165.046 27.0651 164.263 27.9921 164.02 28.2621C163.786 28.5321 163.543 28.5681 163.138 28.3611C162.733 28.1541 161.41 27.7221 159.853 26.3361C158.638 25.2561 157.819 23.9151 157.576 23.5101C157.342 23.1051 157.549 22.8801 157.756 22.6731C157.936 22.4931 158.161 22.1961 158.368 21.9531C158.575 21.7101 158.638 21.5481 158.773 21.2691C158.908 20.9991 158.845 20.7561 158.737 20.5491C158.638 20.3421 157.846 18.3261 157.477 17.5161Z" fill="white"/>
<defs>
<linearGradient id="paint0_linear_815_300" x1="161.496" y1="40.4301" x2="161.496" y2="8.57007" gradientUnits="userSpaceOnUse">
<stop stop-color="#20B038"/>
<stop offset="1" stop-color="#60D66A"/>
</linearGradient>
<linearGradient id="paint1_linear_815_300" x1="161.5" y1="40.997" x2="161.5" y2="7.99402" gradientUnits="userSpaceOnUse">
<stop stop-color="#F9F9F9"/>
<stop offset="1" stop-color="white"/>
</linearGradient>
</defs>
</svg>
