<svg width="199" height="54" viewBox="0 0 199 54" fill="none" xmlns="http://www.w3.org/2000/svg">
<rect x="2" y="3" width="197" height="51" fill="#00A023"/>
<rect width="192" height="49" fill="#45D354"/>
<path d="M22.8 31.192C22.368 31.192 22.016 31.088 21.744 30.88C21.488 30.672 21.28 30.344 21.12 29.896L16.104 15.712C15.928 15.2 15.96 14.768 16.2 14.416C16.456 14.064 16.88 13.888 17.472 13.888C17.904 13.888 18.24 13.992 18.48 14.2C18.72 14.392 18.912 14.704 19.056 15.136L23.376 27.952H22.416L26.928 15.16C27.088 14.728 27.288 14.408 27.528 14.2C27.768 13.992 28.08 13.888 28.464 13.888C28.848 13.888 29.152 13.992 29.376 14.2C29.6 14.408 29.792 14.736 29.952 15.184L34.32 27.952H33.48L37.872 15.136C38.016 14.72 38.208 14.408 38.448 14.2C38.688 13.992 39.016 13.888 39.432 13.888C39.944 13.888 40.32 14.064 40.56 14.416C40.8 14.768 40.832 15.2 40.656 15.712L35.592 29.92C35.432 30.352 35.224 30.672 34.968 30.88C34.712 31.088 34.368 31.192 33.936 31.192C33.504 31.192 33.16 31.088 32.904 30.88C32.648 30.672 32.44 30.344 32.28 29.896L28.104 17.992H28.656L24.432 29.92C24.272 30.352 24.064 30.672 23.808 30.88C23.568 31.088 23.232 31.192 22.8 31.192ZM45.9621 31.192C45.4821 31.192 45.1141 31.064 44.8581 30.808C44.6021 30.536 44.4741 30.152 44.4741 29.656V15.4C44.4741 14.904 44.6021 14.528 44.8581 14.272C45.1141 14.016 45.4821 13.888 45.9621 13.888C46.4421 13.888 46.8101 14.016 47.0661 14.272C47.3381 14.528 47.4741 14.904 47.4741 15.4V21.616H47.1381C47.4901 20.768 48.0341 20.128 48.7701 19.696C49.5221 19.248 50.3701 19.024 51.3141 19.024C52.2581 19.024 53.0341 19.2 53.6421 19.552C54.2501 19.904 54.7061 20.44 55.0101 21.16C55.3141 21.864 55.4661 22.76 55.4661 23.848V29.656C55.4661 30.152 55.3381 30.536 55.0821 30.808C54.8261 31.064 54.4581 31.192 53.9781 31.192C53.4981 31.192 53.1221 31.064 52.8501 30.808C52.5941 30.536 52.4661 30.152 52.4661 29.656V23.992C52.4661 23.08 52.2901 22.416 51.9381 22C51.6021 21.584 51.0741 21.376 50.3541 21.376C49.4741 21.376 48.7701 21.656 48.2421 22.216C47.7301 22.76 47.4741 23.488 47.4741 24.4V29.656C47.4741 30.68 46.9701 31.192 45.9621 31.192ZM62.3771 31.24C61.5291 31.24 60.7691 31.08 60.0971 30.76C59.4411 30.424 58.9211 29.976 58.5371 29.416C58.1691 28.856 57.9851 28.224 57.9851 27.52C57.9851 26.656 58.2091 25.976 58.6571 25.48C59.1051 24.968 59.8331 24.6 60.8411 24.376C61.8491 24.152 63.2011 24.04 64.8971 24.04H66.0971V25.768H64.9211C63.9291 25.768 63.1371 25.816 62.5451 25.912C61.9531 26.008 61.5291 26.176 61.2731 26.416C61.0331 26.64 60.9131 26.96 60.9131 27.376C60.9131 27.904 61.0971 28.336 61.4651 28.672C61.8331 29.008 62.3451 29.176 63.0011 29.176C63.5291 29.176 63.9931 29.056 64.3931 28.816C64.8091 28.56 65.1371 28.216 65.3771 27.784C65.6171 27.352 65.7371 26.856 65.7371 26.296V23.536C65.7371 22.736 65.5611 22.16 65.2091 21.808C64.8571 21.456 64.2651 21.28 63.4331 21.28C62.9691 21.28 62.4651 21.336 61.9211 21.448C61.3931 21.56 60.8331 21.752 60.2411 22.024C59.9371 22.168 59.6651 22.208 59.4251 22.144C59.2011 22.08 59.0251 21.952 58.8971 21.76C58.7691 21.552 58.7051 21.328 58.7051 21.088C58.7051 20.848 58.7691 20.616 58.8971 20.392C59.0251 20.152 59.2411 19.976 59.5451 19.864C60.2811 19.56 60.9851 19.344 61.6571 19.216C62.3451 19.088 62.9691 19.024 63.5291 19.024C64.6811 19.024 65.6251 19.2 66.3611 19.552C67.1131 19.904 67.6731 20.44 68.0411 21.16C68.4091 21.864 68.5931 22.776 68.5931 23.896V29.656C68.5931 30.152 68.4731 30.536 68.2331 30.808C67.9931 31.064 67.6491 31.192 67.2011 31.192C66.7531 31.192 66.4011 31.064 66.1451 30.808C65.9051 30.536 65.7851 30.152 65.7851 29.656V28.504H65.9771C65.8651 29.064 65.6411 29.552 65.3051 29.968C64.9851 30.368 64.5771 30.68 64.0811 30.904C63.5851 31.128 63.0171 31.24 62.3771 31.24ZM77.0141 31.24C75.9741 31.24 75.1021 31.064 74.3981 30.712C73.7101 30.36 73.1981 29.848 72.8621 29.176C72.5261 28.488 72.3581 27.64 72.3581 26.632V21.52H71.1101C70.7261 21.52 70.4301 21.424 70.2221 21.232C70.0141 21.024 69.9101 20.744 69.9101 20.392C69.9101 20.024 70.0141 19.744 70.2221 19.552C70.4301 19.36 70.7261 19.264 71.1101 19.264H72.3581V17.08C72.3581 16.584 72.4861 16.208 72.7421 15.952C73.0141 15.696 73.3901 15.568 73.8701 15.568C74.3501 15.568 74.7181 15.696 74.9741 15.952C75.2301 16.208 75.3581 16.584 75.3581 17.08V19.264H77.9021C78.2861 19.264 78.5821 19.36 78.7901 19.552C78.9981 19.744 79.1021 20.024 79.1021 20.392C79.1021 20.744 78.9981 21.024 78.7901 21.232C78.5821 21.424 78.2861 21.52 77.9021 21.52H75.3581V26.464C75.3581 27.232 75.5261 27.808 75.8621 28.192C76.1981 28.576 76.7421 28.768 77.4941 28.768C77.7661 28.768 78.0061 28.744 78.2141 28.696C78.4221 28.648 78.6061 28.616 78.7661 28.6C78.9581 28.584 79.1181 28.648 79.2461 28.792C79.3741 28.92 79.4381 29.192 79.4381 29.608C79.4381 29.928 79.3821 30.216 79.2701 30.472C79.1741 30.712 78.9901 30.88 78.7181 30.976C78.5101 31.04 78.2381 31.096 77.9021 31.144C77.5661 31.208 77.2701 31.24 77.0141 31.24ZM85.1451 31.24C84.4571 31.24 83.7291 31.168 82.9611 31.024C82.1931 30.88 81.5051 30.632 80.8971 30.28C80.6411 30.12 80.4571 29.936 80.3451 29.728C80.2491 29.504 80.2091 29.288 80.2251 29.08C80.2571 28.856 80.3371 28.664 80.4651 28.504C80.6091 28.344 80.7851 28.24 80.9931 28.192C81.2171 28.144 81.4571 28.184 81.7131 28.312C82.3531 28.616 82.9531 28.832 83.5131 28.96C84.0731 29.072 84.6251 29.128 85.1691 29.128C85.9371 29.128 86.5051 29 86.8731 28.744C87.2571 28.472 87.4491 28.12 87.4491 27.688C87.4491 27.32 87.3211 27.04 87.0651 26.848C86.8251 26.64 86.4571 26.488 85.9611 26.392L83.5611 25.936C82.5691 25.744 81.8091 25.384 81.2811 24.856C80.7691 24.312 80.5131 23.616 80.5131 22.768C80.5131 22 80.7211 21.336 81.1371 20.776C81.5691 20.216 82.1611 19.784 82.9131 19.48C83.6651 19.176 84.5291 19.024 85.5051 19.024C86.2091 19.024 86.8651 19.104 87.4731 19.264C88.0971 19.408 88.6971 19.64 89.2731 19.96C89.5131 20.088 89.6731 20.256 89.7531 20.464C89.8491 20.672 89.8731 20.888 89.8251 21.112C89.7771 21.32 89.6811 21.512 89.5371 21.688C89.3931 21.848 89.2091 21.952 88.9851 22C88.7771 22.032 88.5371 21.984 88.2651 21.856C87.7691 21.6 87.2891 21.416 86.8251 21.304C86.3771 21.192 85.9451 21.136 85.5291 21.136C84.7451 21.136 84.1611 21.272 83.7771 21.544C83.4091 21.816 83.2251 22.176 83.2251 22.624C83.2251 22.96 83.3371 23.24 83.5611 23.464C83.7851 23.688 84.1291 23.84 84.5931 23.92L86.9931 24.376C88.0331 24.568 88.8171 24.92 89.3451 25.432C89.8891 25.944 90.1611 26.632 90.1611 27.496C90.1611 28.664 89.7051 29.584 88.7931 30.256C87.8811 30.912 86.6651 31.24 85.1451 31.24ZM96.4318 31.24C95.5838 31.24 94.8238 31.08 94.1518 30.76C93.4958 30.424 92.9758 29.976 92.5918 29.416C92.2238 28.856 92.0398 28.224 92.0398 27.52C92.0398 26.656 92.2638 25.976 92.7118 25.48C93.1598 24.968 93.8878 24.6 94.8958 24.376C95.9038 24.152 97.2558 24.04 98.9518 24.04H100.152V25.768H98.9758C97.9838 25.768 97.1918 25.816 96.5998 25.912C96.0078 26.008 95.5838 26.176 95.3278 26.416C95.0878 26.64 94.9678 26.96 94.9678 27.376C94.9678 27.904 95.1518 28.336 95.5198 28.672C95.8878 29.008 96.3998 29.176 97.0558 29.176C97.5838 29.176 98.0478 29.056 98.4478 28.816C98.8638 28.56 99.1918 28.216 99.4318 27.784C99.6718 27.352 99.7918 26.856 99.7918 26.296V23.536C99.7918 22.736 99.6158 22.16 99.2638 21.808C98.9118 21.456 98.3198 21.28 97.4878 21.28C97.0238 21.28 96.5198 21.336 95.9758 21.448C95.4478 21.56 94.8878 21.752 94.2958 22.024C93.9918 22.168 93.7198 22.208 93.4798 22.144C93.2558 22.08 93.0798 21.952 92.9518 21.76C92.8238 21.552 92.7598 21.328 92.7598 21.088C92.7598 20.848 92.8238 20.616 92.9518 20.392C93.0798 20.152 93.2958 19.976 93.5998 19.864C94.3358 19.56 95.0398 19.344 95.7118 19.216C96.3998 19.088 97.0238 19.024 97.5838 19.024C98.7358 19.024 99.6798 19.2 100.416 19.552C101.168 19.904 101.728 20.44 102.096 21.16C102.464 21.864 102.648 22.776 102.648 23.896V29.656C102.648 30.152 102.528 30.536 102.288 30.808C102.048 31.064 101.704 31.192 101.256 31.192C100.808 31.192 100.456 31.064 100.2 30.808C99.9598 30.536 99.8398 30.152 99.8398 29.656V28.504H100.032C99.9198 29.064 99.6958 29.552 99.3598 29.968C99.0398 30.368 98.6318 30.68 98.1358 30.904C97.6398 31.128 97.0718 31.24 96.4318 31.24ZM107.181 35.512C106.701 35.512 106.333 35.384 106.077 35.128C105.821 34.872 105.693 34.496 105.693 34V20.584C105.693 20.088 105.821 19.712 106.077 19.456C106.333 19.2 106.693 19.072 107.157 19.072C107.637 19.072 108.005 19.2 108.261 19.456C108.517 19.712 108.645 20.088 108.645 20.584V22.456L108.381 21.736C108.621 20.92 109.109 20.264 109.845 19.768C110.597 19.272 111.469 19.024 112.461 19.024C113.485 19.024 114.381 19.272 115.149 19.768C115.933 20.264 116.541 20.968 116.973 21.88C117.405 22.776 117.621 23.856 117.621 25.12C117.621 26.368 117.405 27.456 116.973 28.384C116.541 29.296 115.941 30 115.173 30.496C114.405 30.992 113.501 31.24 112.461 31.24C111.485 31.24 110.629 31 109.893 30.52C109.157 30.024 108.661 29.384 108.405 28.6H108.693V34C108.693 34.496 108.557 34.872 108.285 35.128C108.029 35.384 107.661 35.512 107.181 35.512ZM111.621 28.96C112.213 28.96 112.733 28.816 113.181 28.528C113.629 28.24 113.973 27.816 114.213 27.256C114.469 26.68 114.597 25.968 114.597 25.12C114.597 23.84 114.325 22.888 113.781 22.264C113.237 21.624 112.517 21.304 111.621 21.304C111.029 21.304 110.509 21.448 110.061 21.736C109.613 22.008 109.261 22.432 109.005 23.008C108.765 23.568 108.645 24.272 108.645 25.12C108.645 26.384 108.917 27.344 109.461 28C110.005 28.64 110.725 28.96 111.621 28.96ZM121.571 35.512C121.091 35.512 120.723 35.384 120.467 35.128C120.211 34.872 120.083 34.496 120.083 34V20.584C120.083 20.088 120.211 19.712 120.467 19.456C120.723 19.2 121.083 19.072 121.547 19.072C122.027 19.072 122.395 19.2 122.651 19.456C122.907 19.712 123.035 20.088 123.035 20.584V22.456L122.771 21.736C123.011 20.92 123.499 20.264 124.235 19.768C124.987 19.272 125.859 19.024 126.851 19.024C127.875 19.024 128.771 19.272 129.539 19.768C130.323 20.264 130.931 20.968 131.363 21.88C131.795 22.776 132.011 23.856 132.011 25.12C132.011 26.368 131.795 27.456 131.363 28.384C130.931 29.296 130.331 30 129.563 30.496C128.795 30.992 127.891 31.24 126.851 31.24C125.875 31.24 125.019 31 124.283 30.52C123.547 30.024 123.051 29.384 122.795 28.6H123.083V34C123.083 34.496 122.947 34.872 122.675 35.128C122.419 35.384 122.051 35.512 121.571 35.512ZM126.011 28.96C126.603 28.96 127.123 28.816 127.571 28.528C128.019 28.24 128.363 27.816 128.603 27.256C128.859 26.68 128.987 25.968 128.987 25.12C128.987 23.84 128.715 22.888 128.171 22.264C127.627 21.624 126.907 21.304 126.011 21.304C125.419 21.304 124.899 21.448 124.451 21.736C124.003 22.008 123.651 22.432 123.395 23.008C123.155 23.568 123.035 24.272 123.035 25.12C123.035 26.384 123.307 27.344 123.851 28C124.395 28.64 125.115 28.96 126.011 28.96Z" fill="white"/>
<path d="M147.075 40.997L149.397 32.528C147.966 30.044 147.21 27.236 147.21 24.347C147.21 15.329 154.554 7.99402 163.563 7.99402C167.937 7.99402 172.041 9.69502 175.137 12.791C178.224 15.878 179.925 19.991 179.925 24.356C179.925 33.374 172.581 40.709 163.572 40.709H163.563C160.827 40.709 158.136 40.025 155.751 38.72L147.075 40.997ZM156.147 35.768L156.642 36.065C158.73 37.307 161.124 37.955 163.563 37.964H163.572C171.069 37.964 177.162 31.871 177.162 24.374C177.162 20.738 175.749 17.327 173.184 14.762C170.619 12.197 167.208 10.775 163.572 10.775C156.075 10.775 149.973 16.868 149.973 24.365C149.973 26.93 150.693 29.432 152.052 31.601L152.376 32.114L150.999 37.127L156.147 35.768Z" fill="white"/>
<path d="M147.642 40.4301L149.883 32.2491C148.497 29.8551 147.777 27.1371 147.777 24.3561C147.777 15.6531 154.86 8.57007 163.563 8.57007C167.784 8.57007 171.753 10.2171 174.732 13.1961C177.711 16.1841 179.358 20.1441 179.349 24.3651C179.349 33.0681 172.266 40.1511 163.563 40.1511H163.554C160.908 40.1511 158.316 39.4851 156.012 38.2341L147.642 40.4301Z" fill="url(#paint0_linear_815_177)"/>
<path d="M147.075 40.997L149.397 32.528C147.966 30.044 147.21 27.236 147.21 24.347C147.21 15.329 154.554 7.99402 163.563 7.99402C167.937 7.99402 172.041 9.69502 175.137 12.791C178.224 15.878 179.925 19.991 179.925 24.356C179.925 33.374 172.581 40.709 163.572 40.709H163.563C160.827 40.709 158.136 40.025 155.751 38.72L147.075 40.997ZM156.147 35.768L156.642 36.065C158.73 37.307 161.124 37.955 163.563 37.964H163.572C171.069 37.964 177.162 31.871 177.162 24.374C177.162 20.738 175.749 17.327 173.184 14.762C170.619 12.197 167.208 10.775 163.572 10.775C156.075 10.775 149.973 16.868 149.973 24.365C149.973 26.93 150.693 29.432 152.052 31.601L152.376 32.114L150.999 37.127L156.147 35.768Z" fill="url(#paint1_linear_815_177)"/>
<path d="M159.477 17.5161C159.171 16.8321 158.847 16.8231 158.559 16.8141C158.325 16.8051 158.046 16.8051 157.776 16.8051C157.506 16.8051 157.065 16.9041 156.687 17.3181C156.309 17.7231 155.256 18.7131 155.256 20.7291C155.256 22.7361 156.723 24.6801 156.921 24.9591C157.128 25.2291 159.747 29.4861 163.905 31.1241C167.361 32.4831 168.063 32.2131 168.81 32.1501C169.557 32.0781 171.231 31.1601 171.573 30.2061C171.915 29.2521 171.915 28.4331 171.807 28.2621C171.708 28.0911 171.429 27.9921 171.024 27.7851C170.619 27.5781 168.603 26.5881 168.234 26.4531C167.856 26.3181 167.586 26.2461 167.316 26.6601C167.046 27.0651 166.263 27.9921 166.02 28.2621C165.786 28.5321 165.543 28.5681 165.138 28.3611C164.733 28.1541 163.41 27.7221 161.853 26.3361C160.638 25.2561 159.819 23.9151 159.576 23.5101C159.342 23.1051 159.549 22.8801 159.756 22.6731C159.936 22.4931 160.161 22.1961 160.368 21.9531C160.575 21.7101 160.638 21.5481 160.773 21.2691C160.908 20.9991 160.845 20.7561 160.737 20.5491C160.638 20.3421 159.846 18.3261 159.477 17.5161Z" fill="white"/>
<defs>
<linearGradient id="paint0_linear_815_177" x1="163.496" y1="40.4301" x2="163.496" y2="8.57007" gradientUnits="userSpaceOnUse">
<stop stop-color="#20B038"/>
<stop offset="1" stop-color="#60D66A"/>
</linearGradient>
<linearGradient id="paint1_linear_815_177" x1="163.5" y1="40.997" x2="163.5" y2="7.99402" gradientUnits="userSpaceOnUse">
<stop stop-color="#F9F9F9"/>
<stop offset="1" stop-color="white"/>
</linearGradient>
</defs>
</svg>
