<svg width="199" height="54" viewBox="0 0 199 54" fill="none" xmlns="http://www.w3.org/2000/svg">
<rect x="2" y="3" width="197" height="51" fill="#FF725C"/>
<rect width="199" height="54" fill="#C64132"/>
<path d="M54.0581 31C53.5301 31 53.1221 30.864 52.8341 30.592C52.5621 30.304 52.4261 29.896 52.4261 29.368V15.712C52.4261 15.184 52.5621 14.784 52.8341 14.512C53.1221 14.224 53.5301 14.08 54.0581 14.08H62.6261C63.0261 14.08 63.3301 14.184 63.5381 14.392C63.7621 14.6 63.8741 14.896 63.8741 15.28C63.8741 15.68 63.7621 15.992 63.5381 16.216C63.3301 16.424 63.0261 16.528 62.6261 16.528H55.3781V21.184H62.0981C62.5141 21.184 62.8261 21.288 63.0341 21.496C63.2421 21.704 63.3461 22.008 63.3461 22.408C63.3461 22.808 63.2421 23.112 63.0341 23.32C62.8261 23.528 62.5141 23.632 62.0981 23.632H55.3781V28.552H62.6261C63.0261 28.552 63.3301 28.656 63.5381 28.864C63.7621 29.072 63.8741 29.376 63.8741 29.776C63.8741 30.176 63.7621 30.48 63.5381 30.688C63.3301 30.896 63.0261 31 62.6261 31H54.0581ZM67.5156 25.768C67.1636 25.768 66.8676 25.656 66.6276 25.432C66.4036 25.192 66.2916 24.904 66.2916 24.568C66.2916 24.216 66.4036 23.928 66.6276 23.704C66.8676 23.48 67.1636 23.368 67.5156 23.368H72.6276C72.9636 23.368 73.2436 23.48 73.4676 23.704C73.7076 23.928 73.8276 24.216 73.8276 24.568C73.8276 24.904 73.7076 25.192 73.4676 25.432C73.2436 25.656 72.9636 25.768 72.6276 25.768H67.5156ZM78.3538 31.192C77.8738 31.192 77.5058 31.064 77.2498 30.808C76.9938 30.536 76.8658 30.152 76.8658 29.656V20.584C76.8658 20.088 76.9938 19.712 77.2498 19.456C77.5058 19.2 77.8658 19.072 78.3298 19.072C78.7938 19.072 79.1538 19.2 79.4098 19.456C79.6658 19.712 79.7938 20.088 79.7938 20.584V22.336L79.5298 21.616C79.8498 20.816 80.3458 20.184 81.0178 19.72C81.6898 19.256 82.4898 19.024 83.4178 19.024C84.3618 19.024 85.1378 19.248 85.7458 19.696C86.3538 20.144 86.7778 20.832 87.0178 21.76H86.6818C87.0018 20.912 87.5298 20.248 88.2658 19.768C89.0018 19.272 89.8498 19.024 90.8098 19.024C91.7058 19.024 92.4418 19.2 93.0178 19.552C93.6098 19.904 94.0498 20.44 94.3378 21.16C94.6258 21.864 94.7698 22.76 94.7698 23.848V29.656C94.7698 30.152 94.6338 30.536 94.3618 30.808C94.1058 31.064 93.7378 31.192 93.2578 31.192C92.7778 31.192 92.4098 31.064 92.1538 30.808C91.8978 30.536 91.7698 30.152 91.7698 29.656V23.968C91.7698 23.072 91.6178 22.416 91.3138 22C91.0258 21.584 90.5298 21.376 89.8258 21.376C89.0418 21.376 88.4258 21.656 87.9778 22.216C87.5298 22.76 87.3058 23.52 87.3058 24.496V29.656C87.3058 30.152 87.1778 30.536 86.9218 30.808C86.6658 31.064 86.2978 31.192 85.8178 31.192C85.3378 31.192 84.9618 31.064 84.6898 30.808C84.4338 30.536 84.3058 30.152 84.3058 29.656V23.968C84.3058 23.072 84.1538 22.416 83.8498 22C83.5618 21.584 83.0738 21.376 82.3858 21.376C81.6018 21.376 80.9858 21.656 80.5378 22.216C80.0898 22.76 79.8658 23.52 79.8658 24.496V29.656C79.8658 30.68 79.3618 31.192 78.3538 31.192ZM101.729 31.24C100.881 31.24 100.121 31.08 99.4487 30.76C98.7927 30.424 98.2727 29.976 97.8887 29.416C97.5207 28.856 97.3367 28.224 97.3367 27.52C97.3367 26.656 97.5607 25.976 98.0087 25.48C98.4567 24.968 99.1847 24.6 100.193 24.376C101.201 24.152 102.553 24.04 104.249 24.04H105.449V25.768H104.273C103.281 25.768 102.489 25.816 101.897 25.912C101.305 26.008 100.881 26.176 100.625 26.416C100.385 26.64 100.265 26.96 100.265 27.376C100.265 27.904 100.449 28.336 100.817 28.672C101.185 29.008 101.697 29.176 102.353 29.176C102.881 29.176 103.345 29.056 103.745 28.816C104.161 28.56 104.489 28.216 104.729 27.784C104.969 27.352 105.089 26.856 105.089 26.296V23.536C105.089 22.736 104.913 22.16 104.561 21.808C104.209 21.456 103.617 21.28 102.785 21.28C102.321 21.28 101.817 21.336 101.273 21.448C100.745 21.56 100.185 21.752 99.5927 22.024C99.2887 22.168 99.0167 22.208 98.7767 22.144C98.5527 22.08 98.3767 21.952 98.2487 21.76C98.1207 21.552 98.0567 21.328 98.0567 21.088C98.0567 20.848 98.1207 20.616 98.2487 20.392C98.3767 20.152 98.5927 19.976 98.8967 19.864C99.6327 19.56 100.337 19.344 101.009 19.216C101.697 19.088 102.321 19.024 102.881 19.024C104.033 19.024 104.977 19.2 105.713 19.552C106.465 19.904 107.025 20.44 107.393 21.16C107.761 21.864 107.945 22.776 107.945 23.896V29.656C107.945 30.152 107.825 30.536 107.585 30.808C107.345 31.064 107.001 31.192 106.553 31.192C106.105 31.192 105.753 31.064 105.497 30.808C105.257 30.536 105.137 30.152 105.137 29.656V28.504H105.329C105.217 29.064 104.993 29.552 104.657 29.968C104.337 30.368 103.929 30.68 103.433 30.904C102.937 31.128 102.369 31.24 101.729 31.24ZM112.478 31.168C111.998 31.168 111.63 31.024 111.374 30.736C111.118 30.448 110.99 30.048 110.99 29.536V20.728C110.99 20.2 111.118 19.8 111.374 19.528C111.63 19.24 111.998 19.096 112.478 19.096C112.958 19.096 113.326 19.24 113.582 19.528C113.854 19.8 113.99 20.2 113.99 20.728V29.536C113.99 30.048 113.862 30.448 113.606 30.736C113.35 31.024 112.974 31.168 112.478 31.168ZM112.478 16.864C111.918 16.864 111.478 16.728 111.158 16.456C110.854 16.168 110.702 15.776 110.702 15.28C110.702 14.768 110.854 14.376 111.158 14.104C111.478 13.832 111.918 13.696 112.478 13.696C113.054 13.696 113.494 13.832 113.798 14.104C114.102 14.376 114.254 14.768 114.254 15.28C114.254 15.776 114.102 16.168 113.798 16.456C113.494 16.728 113.054 16.864 112.478 16.864ZM121.115 31.24C119.787 31.24 118.787 30.864 118.115 30.112C117.443 29.344 117.107 28.224 117.107 26.752V15.4C117.107 14.904 117.235 14.528 117.491 14.272C117.747 14.016 118.115 13.888 118.595 13.888C119.075 13.888 119.443 14.016 119.699 14.272C119.971 14.528 120.107 14.904 120.107 15.4V26.608C120.107 27.344 120.259 27.888 120.563 28.24C120.883 28.592 121.331 28.768 121.907 28.768C122.035 28.768 122.155 28.768 122.267 28.768C122.379 28.752 122.491 28.736 122.603 28.72C122.827 28.688 122.979 28.752 123.059 28.912C123.139 29.056 123.179 29.36 123.179 29.824C123.179 30.224 123.099 30.536 122.939 30.76C122.779 30.984 122.515 31.12 122.147 31.168C121.987 31.184 121.819 31.2 121.643 31.216C121.467 31.232 121.291 31.24 121.115 31.24Z" fill="white"/>
<g clip-path="url(#clip0_815_356)">
<path d="M174.064 36.092H145.127C144.579 36.092 144.053 35.8742 143.665 35.4866C143.278 35.099 143.06 34.5733 143.06 34.0251V13.356C143.06 12.8078 143.278 12.2821 143.665 11.8944C144.053 11.5068 144.579 11.2891 145.127 11.2891H174.064C174.612 11.2891 175.138 11.5068 175.525 11.8944C175.913 12.2821 176.131 12.8078 176.131 13.356V34.0251C176.131 34.5733 175.913 35.099 175.525 35.4866C175.138 35.8742 174.612 36.092 174.064 36.092Z" fill="#EAEAEA"/>
<path d="M147.194 36.092H145.127C144.579 36.092 144.053 35.8742 143.665 35.4866C143.278 35.099 143.06 34.5733 143.06 34.0251V13.356C143.06 13.0845 143.113 12.8158 143.217 12.565C143.321 12.3142 143.473 12.0864 143.665 11.8944C143.857 11.7025 144.085 11.5503 144.336 11.4464C144.587 11.3425 144.855 11.2891 145.127 11.2891C145.398 11.2891 145.667 11.3425 145.918 11.4464C146.169 11.5503 146.396 11.7025 146.588 11.8944C146.78 12.0864 146.933 12.3142 147.036 12.565C147.14 12.8158 147.194 13.0845 147.194 13.356V36.092Z" fill="#D54C3F"/>
<path d="M171.997 36.092H174.064C174.612 36.092 175.138 35.8742 175.525 35.4866C175.913 35.099 176.131 34.5733 176.131 34.0251V13.356C176.131 12.8078 175.913 12.2821 175.525 11.8944C175.138 11.5068 174.612 11.2891 174.064 11.2891C173.515 11.2891 172.99 11.5068 172.602 11.8944C172.214 12.2821 171.997 12.8078 171.997 13.356V36.092Z" fill="#B63524"/>
<path d="M175.247 15.0508C175.47 14.8954 175.66 14.6976 175.806 14.4689C175.952 14.2401 176.052 13.9848 176.099 13.7175C176.147 13.4502 176.141 13.1761 176.082 12.911C176.024 12.6459 175.914 12.3949 175.758 12.1723C175.603 11.9498 175.405 11.76 175.177 11.6138C174.948 11.4677 174.692 11.368 174.425 11.3206C174.158 11.2731 173.884 11.2787 173.619 11.3372C173.354 11.3956 173.103 11.5057 172.88 11.6611L159.597 21.3322L159.595 21.3329L159.594 21.3322L146.311 11.6611C145.861 11.3472 145.305 11.2247 144.765 11.3206C144.226 11.4164 143.746 11.7228 143.432 12.1723C143.118 12.6218 142.996 13.1776 143.091 13.7175C143.187 14.2573 143.494 14.7369 143.943 15.0508L143.888 15.0102L159.595 26.4464M175.303 15.0102L159.595 26.4464L175.303 15.0102Z" fill="#DE5145"/>
<path d="M174.064 11.2891C173.623 11.2891 173.215 11.4269 172.88 11.6611L159.597 21.3322L159.595 21.3329L159.594 21.3322L146.31 11.6611C145.964 11.4183 145.55 11.2884 145.127 11.2891H174.064Z" fill="#EFEFEF"/>
<path d="M147.194 18.3083L143.711 14.8579L143.71 14.8607C143.783 14.9296 143.861 14.9929 143.943 15.0508L143.888 15.0102L147.195 17.4181L147.194 18.3331" fill="#C64132"/>
<path d="M157.3 28.2315L147.194 36.092L147.194 18.2222L157.298 28.2288" fill="#E3E3E3"/>
<path d="M157.3 28.2315L159.595 26.4464L147.194 17.4181V18.2221L157.298 28.2287L157.3 28.2315Z" fill="url(#paint0_linear_815_356)"/>
<path d="M165.149 36.092H171.997V17.4175L159.595 26.4464L157.298 28.2288L165.149 36.092Z" fill="url(#paint1_linear_815_356)"/>
</g>
<defs>
<linearGradient id="paint0_linear_815_356" x1="147.194" y1="22.8251" x2="159.595" y2="22.8251" gradientUnits="userSpaceOnUse">
<stop stop-color="#C8C8C8"/>
<stop offset="1" stop-color="#CDCDCD"/>
</linearGradient>
<linearGradient id="paint1_linear_815_356" x1="157.298" y1="26.7544" x2="171.997" y2="26.7544" gradientUnits="userSpaceOnUse">
<stop stop-color="#D9D9D9"/>
<stop offset="1" stop-color="#E2E2E2"/>
</linearGradient>
<clipPath id="clip0_815_356">
<rect width="45" height="25.092" fill="white" transform="translate(137 11)"/>
</clipPath>
</defs>
</svg>
