<svg width="1440" height="350" viewBox="0 0 1440 350" fill="none" xmlns="http://www.w3.org/2000/svg">
<path fill-rule="evenodd" clip-rule="evenodd" d="M-9 38.8889H42.9225V194.444H94.845V77.7778H146.768V233.333H197.482V116.667H249.405V155.556H301.327H353.25V77.7778H405.172V38.8889H457.095H509.018V272.222H559.732V311.111H611.655V233.333H663.578V194.444H715.5V77.7778H767.422V0H819.345H871.267V116.667H921.982V155.556H973.905H1025.83V0H1077.75V272.222H1129.67V77.7778H1181.59V116.667H1233.52H1284.23V194.444H1336.16V116.667H1388.08H1440V350H1388.08H1336.16H1284.23H1233.52H1181.59H1129.67H1077.75H1025.83H973.905H921.982H871.267H819.345H767.422H715.5H663.578H611.655H559.732H509.018H457.095H405.172H353.25H301.327H249.405H197.482H146.768H94.845H42.9225H-9V38.8889Z" fill="#508A87"/>
<path fill-rule="evenodd" clip-rule="evenodd" d="M-16 159.6V241.2H25.2533V78H67.72V350H108.973V268.4H150.227H191.48V295.6H233.947V132.4H275.2V159.6H316.453V214H358.92V78H400.173V241.2H441.427V322.8H482.68V159.6H525.147V322.8H566.4V214H607.653V78H650.12V295.6H691.373V159.6H732.627V241.2H773.88V105.2H816.347V186.8H857.6V295.6H898.853V214H941.32V322.8H982.573V78H1023.83V241.2H1065.08V186.8H1107.55V295.6H1148.8V105.2H1190.05V132.4H1232.52V186.8H1273.77V322.8H1315.03V350H1356.28V186.8H1398.75V241.2H1440V350H1398.75H1356.28H1315.03H1273.77H1232.52H1190.05H1148.8H1107.55H1065.08H1023.83H982.573H941.32H898.853H857.6H816.347H773.88H732.627H691.373H650.12H607.653H566.4H525.147H482.68H441.427H400.173H358.92H316.453H275.2H233.947H191.48H150.227H108.973H67.72H25.2533H-16V159.6Z" fill="url(#paint0_linear_817_411)"/>
<defs>
<linearGradient id="paint0_linear_817_411" x1="712" y1="78" x2="712" y2="350" gradientUnits="userSpaceOnUse">
<stop offset="0.369792" stop-color="#92DCBB"/>
<stop offset="1" stop-color="#508A87"/>
</linearGradient>
</defs>
</svg>
