<svg width="992" height="940" viewBox="0 0 992 940" fill="none" xmlns="http://www.w3.org/2000/svg">
<g clip-path="url(#clip0_915_4913)">
<path d="M257.729 627.099H177.403V650.471H257.729V627.099Z" fill="#F4F4F4"/>
<path opacity="0.05" d="M198.715 627.099H188.19V650.471H198.715V627.099Z" fill="#292A2E"/>
<path d="M247.465 632.179H203.701V646.029H247.465V632.179Z" fill="white"/>
<path d="M321.8 630.148L247.163 597.549L237.809 618.968L312.445 651.566L321.8 630.148Z" fill="#F4F4F4"/>
<path opacity="0.05" d="M321.8 630.148L247.163 597.549L237.809 618.968L312.445 651.566L321.8 630.148Z" fill="#292A2E"/>
<path d="M311.777 625.77L301.997 621.499L292.643 642.917L302.422 647.188L311.777 625.77Z" fill="white"/>
<path d="M295.331 624.13L254.667 606.369L249.124 619.062L289.787 636.822L295.331 624.13Z" fill="white"/>
<path opacity="0.05" d="M321.94 923.175H301.754V936.656H321.94V923.175Z" fill="#292A2E"/>
<path opacity="0.05" d="M115.56 923.175H95.374V936.656H115.56V923.175Z" fill="#292A2E"/>
<path d="M340.444 651.567H76.8701V922.719H340.444V651.567Z" fill="#F4F4F4"/>
<path opacity="0.03" d="M340.444 651.567H76.8701V922.719H340.444V651.567Z" fill="#292A2E"/>
<path d="M389.288 651.567H125.714V922.719H389.288V651.567Z" fill="#F4F4F4"/>
<path opacity="0.05" d="M370.784 923.175H350.598V936.656H370.784V923.175Z" fill="#292A2E"/>
<path opacity="0.05" d="M164.404 923.175H144.218V936.656H164.404V923.175Z" fill="#292A2E"/>
<path opacity="0.7" d="M379.395 664.266H135.609V716.36H379.395V664.266Z" fill="white"/>
<path opacity="0.7" d="M379.395 729.111H135.609V781.205H379.395V729.111Z" fill="white"/>
<path opacity="0.7" d="M379.395 793.954H135.609V846.048H379.395V793.954Z" fill="white"/>
<path opacity="0.05" d="M257.502 697.602C261.528 697.602 264.791 694.339 264.791 690.313C264.791 686.288 261.528 683.024 257.502 683.024C253.477 683.024 250.213 686.288 250.213 690.313C250.213 694.339 253.477 697.602 257.502 697.602Z" fill="#292A2E"/>
<path opacity="0.05" d="M257.502 762.447C261.528 762.447 264.791 759.184 264.791 755.158C264.791 751.133 261.528 747.869 257.502 747.869C253.477 747.869 250.213 751.133 250.213 755.158C250.213 759.184 253.477 762.447 257.502 762.447Z" fill="#292A2E"/>
<path opacity="0.05" d="M257.502 827.291C261.528 827.291 264.791 824.028 264.791 820.002C264.791 815.977 261.528 812.713 257.502 812.713C253.477 812.713 250.213 815.977 250.213 820.002C250.213 824.028 253.477 827.291 257.502 827.291Z" fill="#292A2E"/>
<path opacity="0.7" d="M379.395 860.26H135.609V912.354H379.395V860.26Z" fill="white"/>
<path opacity="0.05" d="M257.502 893.596C261.528 893.596 264.791 890.333 264.791 886.307C264.791 882.282 261.528 879.018 257.502 879.018C253.477 879.018 250.213 882.282 250.213 886.307C250.213 890.333 253.477 893.596 257.502 893.596Z" fill="#292A2E"/>
<path d="M832.784 940.265L834.748 939.888L804.052 635.265L802.088 635.643L832.784 940.265Z" fill="#494949"/>
<path d="M718.486 940.265L720.45 939.888L689.755 635.265L687.791 635.643L718.486 940.265Z" fill="#494949"/>
<path d="M465.838 940.265L463.874 939.888L494.57 635.265L496.534 635.643L465.838 940.265Z" fill="#494949"/>
<path d="M580.136 940.265L578.172 939.888L608.867 635.265L610.831 635.643L580.136 940.265Z" fill="#494949"/>
<path d="M620.835 501.012L602.903 635.316L604.885 635.581L622.817 501.277L620.835 501.012Z" fill="#494949"/>
<path d="M826.657 501.011L808.725 635.315L810.708 635.58L828.64 501.276L826.657 501.011Z" fill="#494949"/>
<path d="M603.083 645.289H804.403C809.835 645.289 814.238 640.886 814.238 635.454V635.453C814.238 630.021 809.835 625.618 804.403 625.618H603.083C597.651 625.618 593.248 630.021 593.248 635.453V635.454C593.248 640.886 597.651 645.289 603.083 645.289Z" fill="#292A2E"/>
<path opacity="0.8" d="M603.083 645.289H804.403C809.835 645.289 814.238 640.886 814.238 635.454V635.453C814.238 630.021 809.835 625.618 804.403 625.618H603.083C597.651 625.618 593.248 630.021 593.248 635.453V635.454C593.248 640.886 597.651 645.289 603.083 645.289Z" fill="white"/>
<path d="M592.248 635.458C592.25 632.585 593.392 629.83 595.424 627.798C597.455 625.765 600.21 624.622 603.083 624.619H804.403C807.277 624.619 810.033 625.761 812.065 627.793C814.097 629.825 815.238 632.581 815.238 635.454C815.238 638.328 814.097 641.084 812.065 643.116C810.033 645.148 807.277 646.289 804.403 646.289H603.083C600.211 646.286 597.458 645.144 595.427 643.113C593.396 641.083 592.253 638.33 592.248 635.458ZM603.083 626.623C600.74 626.623 598.493 627.554 596.836 629.211C595.179 630.868 594.248 633.115 594.248 635.458C594.248 637.801 595.179 640.049 596.836 641.705C598.493 643.362 600.74 644.293 603.083 644.293H804.403C806.746 644.293 808.993 643.362 810.65 641.705C812.307 640.049 813.238 637.801 813.238 635.458C813.238 633.115 812.307 630.868 810.65 629.211C808.993 627.554 806.746 626.623 804.403 626.623H603.083Z" fill="#292A2E"/>
<path d="M492.588 645.289H693.908C699.34 645.289 703.743 640.886 703.743 635.454V635.453C703.743 630.021 699.34 625.618 693.908 625.618H492.588C487.156 625.618 482.753 630.021 482.753 635.453V635.454C482.753 640.886 487.156 645.289 492.588 645.289Z" fill="white"/>
<path d="M481.752 635.458C481.755 632.585 482.898 629.831 484.93 627.8C486.961 625.769 489.715 624.626 492.588 624.623H693.908C696.782 624.623 699.538 625.765 701.569 627.797C703.601 629.829 704.743 632.584 704.743 635.458C704.743 638.332 703.601 641.088 701.569 643.12C699.538 645.152 696.782 646.293 693.908 646.293H492.588C489.715 646.29 486.961 645.147 484.93 643.116C482.899 641.085 481.756 638.331 481.752 635.458ZM492.588 626.623C490.245 626.623 487.998 627.554 486.341 629.211C484.684 630.868 483.753 633.115 483.753 635.458C483.753 637.801 484.684 640.048 486.341 641.705C487.998 643.362 490.245 644.293 492.588 644.293H693.908C696.251 644.293 698.498 643.362 700.155 641.705C701.812 640.048 702.743 637.801 702.743 635.458C702.743 633.115 701.812 630.868 700.155 629.211C698.498 627.554 696.251 626.623 693.908 626.623H492.588Z" fill="#292A2E"/>
<path d="M631.872 501.149H827.119C830.311 501.149 833.394 499.988 835.793 497.881C838.192 495.775 839.742 492.868 840.154 489.702L853.068 390.522C853.31 388.668 853.153 386.784 852.608 384.996C852.064 383.207 851.144 381.556 849.911 380.151C848.677 378.746 847.158 377.621 845.455 376.85C843.752 376.079 841.904 375.68 840.034 375.68H644.783C641.591 375.68 638.508 376.842 636.109 378.949C633.711 381.055 632.16 383.963 631.748 387.128L618.833 486.307C618.592 488.161 618.749 490.046 619.294 491.835C619.838 493.623 620.759 495.275 621.993 496.68C623.227 498.085 624.747 499.21 626.45 499.981C628.154 500.751 630.002 501.15 631.872 501.149Z" fill="#292A2E"/>
<path opacity="0.8" d="M631.872 501.149H827.119C830.311 501.149 833.394 499.988 835.793 497.881C838.192 495.775 839.742 492.868 840.154 489.702L853.068 390.522C853.31 388.668 853.153 386.784 852.608 384.996C852.064 383.207 851.144 381.556 849.911 380.151C848.677 378.746 847.158 377.621 845.455 376.85C843.752 376.079 841.904 375.68 840.034 375.68H644.783C641.591 375.68 638.508 376.842 636.109 378.949C633.711 381.055 632.16 383.963 631.748 387.128L618.833 486.307C618.592 488.161 618.749 490.046 619.294 491.835C619.838 493.623 620.759 495.275 621.993 496.68C623.227 498.085 624.747 499.21 626.45 499.981C628.154 500.751 630.002 501.15 631.872 501.149Z" fill="white"/>
<path d="M621.244 497.338C619.916 495.827 618.926 494.05 618.34 492.126C617.754 490.201 617.585 488.174 617.844 486.179L630.759 386.999C631.209 383.596 632.879 380.472 635.458 378.207C638.037 375.941 641.35 374.688 644.783 374.68H840.034C842.046 374.68 844.034 375.109 845.867 375.939C847.7 376.768 849.334 377.979 850.662 379.491C851.989 381.003 852.979 382.78 853.565 384.704C854.151 386.629 854.32 388.656 854.06 390.651L841.145 489.831C840.694 493.234 839.024 496.359 836.445 498.624C833.866 500.889 830.552 502.142 827.119 502.149H631.872C629.86 502.149 627.872 501.72 626.039 500.89C624.206 500.061 622.571 498.85 621.244 497.338ZM644.783 376.68C641.836 376.688 638.992 377.764 636.778 379.709C634.564 381.654 633.131 384.337 632.744 387.258L619.829 486.438C619.606 488.151 619.751 489.892 620.254 491.544C620.757 493.196 621.607 494.722 622.747 496.02C623.887 497.318 625.29 498.357 626.864 499.07C628.437 499.782 630.145 500.15 631.872 500.15H827.119C830.066 500.144 832.912 499.069 835.126 497.124C837.341 495.179 838.775 492.496 839.162 489.574L852.076 390.394C852.299 388.681 852.154 386.941 851.651 385.288C851.148 383.636 850.299 382.11 849.159 380.812C848.019 379.514 846.616 378.474 845.042 377.762C843.469 377.05 841.761 376.681 840.034 376.681L644.783 376.68Z" fill="#292A2E"/>
<path d="M620.831 501.149H816.083C819.275 501.149 822.358 499.988 824.757 497.881C827.155 495.775 828.706 492.868 829.118 489.702L842.033 390.522C842.274 388.668 842.117 386.784 841.573 384.996C841.028 383.207 840.108 381.556 838.875 380.151C837.641 378.746 836.122 377.621 834.419 376.85C832.715 376.079 830.867 375.68 828.998 375.68H633.746C630.554 375.68 627.471 376.842 625.072 378.949C622.674 381.055 621.124 383.963 620.712 387.128L607.797 486.307C607.555 488.161 607.712 490.045 608.257 491.833C608.801 493.622 609.721 495.274 610.955 496.678C612.188 498.083 613.707 499.208 615.41 499.979C617.113 500.75 618.961 501.149 620.831 501.149Z" fill="white"/>
<path d="M610.203 497.338C608.876 495.827 607.886 494.05 607.299 492.125C606.713 490.201 606.544 488.174 606.803 486.179L619.718 386.999C620.169 383.596 621.839 380.472 624.418 378.206C626.997 375.941 630.311 374.688 633.744 374.68H828.993C831.005 374.68 832.993 375.109 834.826 375.939C836.659 376.768 838.294 377.979 839.621 379.491C840.948 381.003 841.938 382.78 842.524 384.704C843.11 386.629 843.279 388.656 843.019 390.651L830.105 489.831C829.654 493.234 827.985 496.357 825.406 498.622C822.828 500.887 819.515 502.14 816.083 502.149H620.831C618.819 502.149 616.831 501.72 614.998 500.89C613.165 500.061 611.531 498.85 610.203 497.338ZM633.746 376.68C630.798 376.687 627.953 377.763 625.739 379.708C623.524 381.653 622.09 384.336 621.703 387.258L608.788 486.438C608.565 488.151 608.71 489.892 609.213 491.544C609.716 493.196 610.566 494.722 611.706 496.02C612.846 497.318 614.249 498.357 615.823 499.07C617.396 499.782 619.104 500.15 620.831 500.15H816.083C819.031 500.144 821.876 499.069 824.09 497.124C826.305 495.179 827.739 492.496 828.126 489.574L841.041 390.395C841.264 388.682 841.119 386.942 840.616 385.289C840.113 383.637 839.263 382.111 838.123 380.813C836.983 379.515 835.58 378.475 834.006 377.762C832.433 377.05 830.725 376.681 828.998 376.681L633.746 376.68Z" fill="#292A2E"/>
<path d="M674 185L566.591 222.635C565.875 227.549 524.591 231.635 530.591 263.635C555.591 291.135 566.591 316.229 576.591 325.31L601.976 360.948C604.909 363.503 608.318 365.453 612.007 366.687C615.696 367.92 619.592 368.413 623.472 368.136C627.352 367.859 631.139 366.818 634.616 365.074C638.092 363.329 641.19 360.915 643.73 357.969C646.271 355.024 648.205 351.606 649.421 347.911C650.636 344.216 651.11 340.317 650.815 336.439C650.519 332.56 649.46 328.778 647.699 325.31C645.938 321.842 643.508 318.756 640.551 316.229L588.591 263.635L660 214L674 185Z" fill="#E0977B"/>
<path d="M657.085 214.839L646.062 195.077C646.062 195.077 667.207 171.789 695.826 175.982C705.312 177.372 703.907 188.119 700.852 189.401C690.751 193.653 676.23 196.121 670.195 203.355C674.482 203.169 680.356 203.263 680.482 205.168C680.806 210.194 657.085 214.839 657.085 214.839Z" fill="#E0977B"/>
<path d="M672.46 216C672.46 216 659.145 206.41 659.001 187.363C658.885 172.614 675.541 183.813 675.541 183.813C675.541 183.813 675.603 173.193 685.897 175.269C696.191 177.345 700 188.885 700 188.885" fill="#0C0C0C"/>
<path d="M728.944 175.213C728.944 175.213 773.356 186.219 748.695 245.065L744.67 244.786L736.5 244.219" fill="#0C0C0C"/>
<path d="M671.94 306.223C672.14 306.196 674.36 343.023 717.146 339.815C746.766 337.596 757.327 306.17 758.006 306.17C754.812 305.492 750.866 304.462 749.297 304.108C745.879 303.314 742.785 301.498 740.424 298.902C738.064 296.306 736.55 293.053 736.083 289.576C735.216 284.356 736.683 257.648 736.234 252.366L690.767 262.515C691.402 273.67 695.849 299.531 680.267 304.108C677.666 304.865 674.873 305.558 671.94 306.223Z" fill="#E0977B"/>
<path opacity="0.52" d="M690.124 293.539C690.837 291.244 691.295 288.877 691.492 286.482C691.991 281.017 691.89 275.513 691.192 270.07C700.433 268.823 709.139 265.008 716.321 259.06C717.165 262.178 721.808 275.802 720.521 278.76C718.096 284.367 706.677 293.539 690.124 293.539Z" fill="#0C0C0C"/>
<path d="M693 284C710.99 284.841 736 275 741.333 251.242L744.592 229.513C748.203 205.432 738.482 184.013 715.809 180.613C693.136 177.213 673.261 194.194 669.65 218.275L668.207 227.894C667.769 231.206 667.558 234.543 667.574 237.884C667.552 246.712 667.552 260.14 672.215 269.862C676.616 279.04 681.507 283.461 693 284Z" fill="#E0977B"/>
<path d="M689.616 263.954C685.953 263.664 682.419 262.631 679.299 260.937C679.231 260.905 679.172 260.861 679.124 260.808C679.076 260.756 679.041 260.695 679.02 260.63C679 260.565 678.995 260.498 679.005 260.431C679.016 260.365 679.042 260.301 679.082 260.243C679.121 260.185 679.174 260.135 679.237 260.096C679.299 260.056 679.37 260.028 679.446 260.013C679.521 259.998 679.599 259.996 679.676 260.008C679.752 260.019 679.824 260.044 679.889 260.081C686.633 263.585 693.194 263.97 698.872 261.196C698.986 261.137 699.105 261.083 699.226 261.035C699.366 260.99 699.521 260.994 699.658 261.046C699.794 261.099 699.902 261.195 699.958 261.316C700.014 261.436 700.014 261.57 699.958 261.691C699.902 261.811 699.794 261.907 699.657 261.96C699.612 261.977 699.539 262.015 699.436 262.065C696.452 263.529 693.033 264.187 689.616 263.954Z" fill="#0C0C0C"/>
<path d="M676.116 228.787C677.676 228.787 678.94 227.523 678.94 225.963C678.94 224.403 677.676 223.139 676.116 223.139C674.556 223.139 673.292 224.403 673.292 225.963C673.292 227.523 674.556 228.787 676.116 228.787Z" fill="#0C0C0C"/>
<path d="M702.375 230.538C703.935 230.538 705.199 229.274 705.199 227.714C705.199 226.154 703.935 224.89 702.375 224.89C700.815 224.89 699.551 226.154 699.551 227.714C699.551 229.274 700.815 230.538 702.375 230.538Z" fill="#0C0C0C"/>
<path d="M738.825 258.367C745.715 259.4 752.407 252.867 753.44 245.976C754.473 239.085 749.457 234.448 742.567 233.415L738.324 237.499L732.901 257.479L738.825 258.367Z" fill="#E0977B"/>
<path d="M733.477 246.335C733.477 246.335 735.822 211.881 725.76 208.355C719.06 206.007 701.003 213.496 685.923 208.422C679.323 206.202 672.666 206.998 671.573 210.108C671.141 211.339 669.414 192.555 681.915 180.19C691.868 170.345 719.933 171.025 732.015 176.355C765.465 191.113 743.785 235.113 743.785 235.113L740.62 246.668L733.477 246.335Z" fill="#0C0C0C"/>
<path d="M688.63 250.991H688.586C686.365 250.664 682.675 249.868 682.918 248.206C683.118 246.829 689.079 232.521 689.759 230.895C689.786 230.823 689.827 230.757 689.88 230.701C689.933 230.645 689.996 230.6 690.067 230.569C690.138 230.538 690.214 230.522 690.291 230.522C690.368 230.521 690.444 230.536 690.515 230.566C690.587 230.595 690.651 230.639 690.705 230.694C690.759 230.749 690.801 230.815 690.829 230.887C690.856 230.959 690.869 231.035 690.867 231.112C690.864 231.189 690.846 231.265 690.814 231.335C688.17 237.671 684.188 247.435 684.05 248.372C684.211 248.797 686.45 249.52 688.75 249.86C688.895 249.883 689.025 249.961 689.114 250.077C689.204 250.194 689.245 250.34 689.229 250.486C689.213 250.632 689.142 250.766 689.03 250.861C688.918 250.956 688.774 251.004 688.628 250.996L688.63 250.991Z" fill="#0C0C0C"/>
<path d="M685.597 216.697C683.347 215.734 680.879 215.398 678.453 215.722C677.262 215.873 676.101 216.203 675.008 216.699C673.929 217.184 672.915 217.804 671.991 218.543C671.821 218.674 671.708 218.865 671.676 219.077C671.644 219.289 671.694 219.505 671.817 219.681C671.94 219.856 672.126 219.978 672.336 220.02C672.547 220.061 672.765 220.021 672.946 219.906L673.003 219.869C673.844 219.279 674.757 218.797 675.719 218.435C676.665 218.073 677.66 217.857 678.67 217.794C680.661 217.654 682.654 218.041 684.448 218.917L684.523 218.956C684.818 219.108 685.161 219.136 685.477 219.035C685.794 218.934 686.056 218.711 686.208 218.416C686.36 218.121 686.389 217.778 686.288 217.462C686.187 217.146 685.964 216.883 685.669 216.731L685.597 216.697Z" fill="#0C0C0C"/>
<path d="M701.957 220.368C703.854 219.747 705.882 219.639 707.835 220.054C708.827 220.256 709.782 220.607 710.669 221.096C711.571 221.587 712.409 222.191 713.161 222.891L713.21 222.934C713.373 223.075 713.584 223.147 713.799 223.136C714.014 223.124 714.216 223.03 714.363 222.873C714.51 222.716 714.591 222.507 714.588 222.292C714.585 222.077 714.498 221.871 714.347 221.718C713.533 220.858 712.615 220.105 711.613 219.475C710.599 218.833 709.495 218.346 708.337 218.031C705.979 217.375 703.488 217.368 701.126 218.01C700.806 218.099 700.535 218.312 700.373 218.601C700.21 218.891 700.169 219.233 700.258 219.552C700.348 219.872 700.561 220.143 700.85 220.306C701.139 220.468 701.481 220.509 701.801 220.42L701.874 220.397L701.957 220.368Z" fill="#0C0C0C"/>
<path d="M695.159 188.542C701.874 192.419 709.453 191.863 712.088 187.301C714.722 182.739 711.413 175.897 704.698 172.02C697.983 168.143 690.404 168.699 687.77 173.261C685.135 177.823 688.444 184.665 695.159 188.542Z" fill="#0C0C0C"/>
<path opacity="0.8" d="M643.06 863L576.838 624.049H713.238C740.638 624.049 752.06 600.814 752.06 573.416C752.06 546.018 725.125 522 697.726 522H513.636C496.925 522 478.139 541.03 468.968 555C459.797 568.97 462.323 581.807 468.968 597.141L607.027 885" fill="#E0977B"/>
<path opacity="0.8" d="M643.06 863L576.838 624.049H713.238C740.638 624.049 752.06 600.814 752.06 573.416C752.06 546.018 725.125 522 697.726 522H513.636C496.925 522 478.139 541.03 468.968 555C459.797 568.97 462.323 581.807 468.968 597.141L607.027 885" fill="#E0977B"/>
<path d="M594.971 862.477C594.971 862.477 602.935 894.264 578.727 909.254C554.519 924.245 569.699 943 569.699 943L665 891.895L641.576 840L594.971 862.477Z" fill="#394660"/>
<path d="M602.683 660.558L572.683 610.558L700.664 626.184C728.064 626.184 739.486 602.949 739.486 575.551C739.486 548.153 712.551 524.135 685.152 524.135H501.062C484.351 524.135 465.613 534.355 456.442 548.325C447.271 562.295 449.749 583.942 456.394 599.276L501.062 688.558" fill="#820000"/>
<g filter="url(#filter0_d_915_4913)">
<path d="M445 891L571.044 626.003L733.668 625.992C771.774 622.956 789.225 601.734 788.67 574.333C788.123 547.279 760.17 548.558 733.668 548.558H632.683L532.683 548.558C513.075 548.967 488.274 586.492 481 605L405 891" fill="#E0977B"/>
</g>
<path d="M402.778 882C402.778 882 397.468 913.765 371.695 915.535C345.923 917.306 351.511 941 351.511 941H450V884.215L402.778 882Z" fill="#394660"/>
<g filter="url(#filter1_d_915_4913)">
<path d="M554.683 690.558L570.683 625.457H733.668C771.774 622.436 789.225 601.322 788.67 574.06C788.123 547.144 760.17 538.558 733.668 538.558H530.683C511.075 538.965 493.921 542.874 486.646 561.288L459 653" fill="#820000"/>
</g>
<g filter="url(#filter2_d_915_4913)">
<mask id="path-62-inside-1_915_4913" fill="white">
<path d="M559.709 691L576.549 625.899H748.096C788.203 622.878 806.571 601.764 805.986 574.502C805.41 547.586 775.989 539 748.096 539H534.448C513.81 539.407 495.755 543.316 488.099 561.73L459 653.442"/>
</mask>
<path d="M576.549 625.899V624.899H575.775L575.581 625.648L576.549 625.899ZM748.096 625.899V626.899H748.133L748.171 626.896L748.096 625.899ZM805.986 574.502L804.987 574.524L804.987 574.524L805.986 574.502ZM534.448 539V538H534.438L534.429 538L534.448 539ZM488.099 561.73L487.175 561.346L487.159 561.386L487.145 561.428L488.099 561.73ZM560.677 691.25L577.517 626.149L575.581 625.648L558.741 690.749L560.677 691.25ZM576.549 626.899H748.096V624.899H576.549V626.899ZM748.171 626.896C768.378 625.374 783.242 619.284 792.989 610.015C802.752 600.733 807.284 588.355 806.986 574.481L804.987 574.524C805.274 587.911 800.913 599.721 791.611 608.566C782.294 617.425 767.92 623.403 748.021 624.901L748.171 626.896ZM806.986 574.481C806.689 560.568 798.896 551.4 787.736 545.765C776.625 540.154 762.119 538 748.096 538V540C761.966 540 776.118 542.138 786.834 547.55C797.502 552.937 804.708 561.52 804.987 574.524L806.986 574.481ZM748.096 538H534.448V540H748.096V538ZM534.429 538C513.771 538.407 495.089 542.313 487.175 561.346L489.022 562.114C496.421 544.32 513.849 540.406 534.468 540L534.429 538ZM487.145 561.428L458.047 653.139L459.953 653.744L489.052 562.033L487.145 561.428Z" fill="black" mask="url(#path-62-inside-1_915_4913)"/>
</g>
<path d="M806.632 521.104C806.632 521.104 813.969 568.95 802.339 595.551C787.82 628.761 733.392 626.174 733.392 626.174L736.459 520.774L806.632 521.104Z" fill="#820000"/>
<path d="M618.985 387.2C620.332 403.033 629.885 501.81 631.185 521.312H806.758C807.767 503.723 811.041 429.046 814.867 394.651C818.518 361.829 819.844 343.099 815.638 332.9C808.22 314.91 789.657 308.437 773.667 306.272C763.904 304.951 749.219 304.003 749.219 304.003C749.219 304.003 747.975 329.153 718.326 330.553C677.967 332.453 680.663 304 680.463 304C673.925 304 638.334 308.755 629.435 314.555C616.866 322.748 613.152 333.912 613.005 344.169C612.836 355.983 617.453 369.244 618.985 387.2Z" fill="#7D7D7D"/>
<path d="M625.683 468.017H625.725C625.857 468.006 625.979 467.943 626.065 467.841C626.15 467.74 626.192 467.609 626.181 467.477L621.623 412.723C621.619 412.657 621.602 412.592 621.573 412.533C621.543 412.474 621.502 412.421 621.452 412.379C621.401 412.336 621.343 412.304 621.279 412.285C621.216 412.265 621.15 412.259 621.084 412.266C621.019 412.271 620.955 412.29 620.896 412.32C620.838 412.35 620.786 412.391 620.744 412.441C620.701 412.491 620.669 412.55 620.649 412.612C620.629 412.675 620.622 412.741 620.627 412.806L625.183 467.558C625.193 467.683 625.251 467.8 625.343 467.885C625.436 467.97 625.557 468.017 625.683 468.017Z" fill="#0C0C0C"/>
<path d="M542.06 500.879L503.536 382.458C502.86 380.377 501.542 378.564 499.772 377.278C498.002 375.991 495.871 375.298 493.683 375.297H336.727C335.091 375.297 333.478 375.684 332.02 376.427C330.562 377.17 329.301 378.247 328.34 379.571C327.378 380.895 326.744 382.428 326.488 384.044C326.233 385.66 326.364 387.313 326.87 388.869L365.395 507.292C366.072 509.373 367.39 511.187 369.161 512.473C370.931 513.759 373.064 514.451 375.252 514.451H532.203C533.839 514.451 535.452 514.064 536.91 513.321C538.367 512.578 539.629 511.501 540.59 510.177C541.552 508.853 542.186 507.321 542.441 505.705C542.697 504.089 542.566 502.435 542.06 500.879Z" fill="#292A2E"/>
<path d="M542.06 500.879L503.536 382.458C502.86 380.377 501.542 378.564 499.772 377.278C498.002 375.991 495.871 375.298 493.683 375.297H336.727C335.091 375.297 333.478 375.684 332.02 376.427C330.562 377.17 329.301 378.247 328.34 379.571C327.378 380.895 326.744 382.428 326.488 384.044C326.233 385.66 326.364 387.313 326.87 388.869L365.395 507.292C366.072 509.373 367.39 511.187 369.161 512.473C370.931 513.759 373.064 514.451 375.252 514.451H532.203C533.839 514.451 535.452 514.064 536.91 513.321C538.367 512.578 539.629 511.501 540.59 510.177C541.552 508.853 542.186 507.321 542.441 505.705C542.697 504.089 542.566 502.435 542.06 500.879Z" fill="#292A2E"/>
<path d="M615.698 504.848H510.634C508.016 504.848 505.894 506.97 505.894 509.588V509.71C505.894 512.328 508.016 514.45 510.634 514.45H615.698C618.316 514.45 620.438 512.328 620.438 509.71V509.588C620.438 506.97 618.316 504.848 615.698 504.848Z" fill="#292A2E"/>
<path d="M615.698 504.848H510.634C508.016 504.848 505.894 506.97 505.894 509.588V509.71C505.894 512.328 508.016 514.45 510.634 514.45H615.698C618.316 514.45 620.438 512.328 620.438 509.71V509.588C620.438 506.97 618.316 504.848 615.698 504.848Z" fill="#292A2E"/>
<path d="M434.465 467.112C443.556 467.112 450.926 459.742 450.926 450.651C450.926 441.56 443.556 434.19 434.465 434.19C425.374 434.19 418.004 441.56 418.004 450.651C418.004 459.742 425.374 467.112 434.465 467.112Z" fill="white"/>
<path d="M547.13 479.112L543.109 478.834C541.938 478.729 540.852 478.184 540.068 477.309C539.284 476.435 538.861 475.296 538.883 474.123C538.918 473.522 539.074 472.934 539.342 472.395C539.612 471.854 539.989 471.372 540.45 470.981C540.912 470.59 541.448 470.297 542.027 470.12C542.605 469.943 543.214 469.885 543.815 469.951L543.816 469.951L592.958 475.173L591.708 490.635C591.316 495.489 589.483 500.115 586.444 503.92C583.405 507.725 579.299 510.537 574.652 511.993L553.162 518.687L553.162 518.687L553.153 518.69C552.152 519.023 551.067 519.001 550.082 518.626C549.098 518.252 548.273 517.55 547.747 516.638C547.292 515.806 547.115 514.851 547.241 513.911C547.367 512.97 547.79 512.093 548.449 511.409L548.846 510.998L548.439 510.698L549.309 509.513L547.853 509.97L543.895 511.212L543.895 511.212L543.886 511.215C542.77 511.59 541.554 511.527 540.483 511.04C539.415 510.553 538.571 509.68 538.121 508.597C537.758 507.617 537.751 506.541 538.102 505.556C538.454 504.569 539.143 503.738 540.047 503.209L540.82 502.757L540.044 502.344L539.84 502.102L539.523 502.202L537.895 502.712L537.895 502.712L537.885 502.715C536.884 503.051 535.797 503.03 534.809 502.656C533.823 502.282 532.997 501.579 532.47 500.666C531.919 499.656 531.779 498.473 532.08 497.363C532.381 496.252 533.101 495.3 534.088 494.707L534.415 494.511L534.316 494.155L534.3 493.478L533.65 493.706L521.969 497.801C521.969 497.801 521.969 497.801 521.969 497.801C521.452 497.982 520.904 498.059 520.357 498.029C519.81 497.999 519.274 497.861 518.78 497.623C517.783 497.143 517.017 496.287 516.651 495.243C516.285 494.198 516.349 493.051 516.829 492.054C517.308 491.056 518.165 490.29 519.209 489.924L519.471 489.833L519.473 489.823L547.261 480.083L547.13 479.112ZM543.869 469.454L543.869 469.454L543.869 469.454Z" fill="#E0977B" stroke="black"/>
<path opacity="0.2" d="M551.083 488.982C551.134 488.982 551.184 488.973 551.232 488.956L561.794 485.115C561.848 485.095 561.897 485.065 561.939 485.026C561.981 484.988 562.015 484.941 562.039 484.889C562.063 484.837 562.077 484.781 562.079 484.724C562.081 484.667 562.073 484.61 562.053 484.556C562.033 484.502 562.003 484.453 561.964 484.411C561.926 484.369 561.879 484.335 561.827 484.311C561.775 484.287 561.719 484.273 561.662 484.271C561.605 484.268 561.548 484.277 561.494 484.297L550.931 488.138C550.835 488.173 550.754 488.24 550.702 488.329C550.651 488.418 550.633 488.522 550.651 488.623C550.668 488.723 550.721 488.815 550.8 488.88C550.878 488.946 550.977 488.982 551.08 488.982H551.083Z" fill="#0A0A0A"/>
<path opacity="0.2" d="M556.42 496.658C556.47 496.658 556.519 496.65 556.566 496.633L564.891 493.678C564.946 493.66 564.997 493.631 565.041 493.593C565.085 493.555 565.12 493.509 565.146 493.457C565.171 493.404 565.186 493.348 565.19 493.29C565.193 493.232 565.185 493.174 565.166 493.12C565.146 493.065 565.116 493.015 565.077 492.972C565.038 492.929 564.991 492.894 564.938 492.87C564.886 492.846 564.829 492.832 564.771 492.83C564.713 492.828 564.655 492.837 564.601 492.858L556.275 495.813C556.178 495.847 556.097 495.915 556.045 496.003C555.993 496.091 555.974 496.195 555.992 496.296C556.009 496.398 556.061 496.489 556.14 496.555C556.218 496.622 556.317 496.658 556.42 496.658Z" fill="#0A0A0A"/>
<path opacity="0.2" d="M564.26 504.458C564.313 504.457 564.365 504.448 564.415 504.429L568.315 502.942C568.423 502.901 568.51 502.818 568.557 502.713C568.604 502.607 568.607 502.488 568.566 502.38C568.525 502.272 568.442 502.185 568.337 502.138C568.232 502.091 568.112 502.088 568.004 502.129L564.104 503.617C564.009 503.653 563.93 503.722 563.881 503.81C563.831 503.899 563.814 504.002 563.832 504.102C563.851 504.201 563.904 504.292 563.981 504.357C564.059 504.422 564.158 504.458 564.259 504.458H564.26Z" fill="#0A0A0A"/>
<path d="M709.475 461.157L747.585 345.671L808.698 371.365L756.976 491.382L756.974 491.385L756.469 492.581C756.469 492.582 756.469 492.583 756.468 492.584C753.969 498.344 749.759 503.198 744.41 506.487C739.061 509.776 732.831 511.342 726.563 510.973C726.561 510.973 726.559 510.973 726.557 510.973L585.5 499.539V473.454L709.048 461.498L709.373 461.466L709.475 461.157Z" fill="#E0977B" stroke="black"/>
<path d="M585 475L709 463L747.28 347L809.357 373.1L757.435 493.58L756.928 494.78C754.388 500.636 750.109 505.57 744.671 508.913C739.234 512.257 732.9 513.848 726.528 513.472L585 502V475Z" fill="#E0977B"/>
<path d="M242.51 524.038L200.353 941.387L202.343 941.588L244.5 524.239L242.51 524.038Z" fill="#494949"/>
<path d="M925.945 524.033L923.955 524.234L966.142 941.581L968.132 941.379L925.945 524.033Z" fill="#494949"/>
<path d="M751.648 524.033L749.658 524.235L791.844 941.581L793.834 941.38L751.648 524.033Z" fill="#494949"/>
<path d="M68.2122 524.037L26.0549 941.386L28.0448 941.587L70.2021 524.238L68.2122 524.037Z" fill="#494949"/>
<path d="M30.1951 532.329L961.198 532.329C965.724 532.329 969.392 528.661 969.392 524.135C969.392 519.61 965.724 515.942 961.198 515.942L30.1951 515.942C25.6697 515.942 22.0011 519.61 22.0011 524.135C22.0011 528.661 25.6697 532.329 30.1951 532.329Z" fill="#292A2E"/>
<path opacity="0.8" d="M30.1951 532.329L961.198 532.329C965.724 532.329 969.392 528.661 969.392 524.135C969.392 519.61 965.724 515.942 961.198 515.942L30.1951 515.942C25.6697 515.942 22.0011 519.61 22.0011 524.135C22.0011 528.661 25.6697 532.329 30.1951 532.329Z" fill="white"/>
<path d="M21 524.135C21.0016 521.697 21.9708 519.359 23.6946 517.636C25.4185 515.912 27.7561 514.943 30.194 514.941H961.194C963.632 514.941 965.971 515.91 967.695 517.634C969.419 519.358 970.388 521.697 970.388 524.135C970.388 526.573 969.419 528.912 967.695 530.636C965.971 532.36 963.632 533.329 961.194 533.329H30.194C27.7561 533.327 25.4185 532.358 23.6946 530.634C21.9708 528.91 21.0016 526.573 21 524.135ZM30.194 516.941C28.286 516.941 26.4562 517.699 25.1071 519.048C23.7579 520.397 23 522.227 23 524.135C23 526.043 23.7579 527.873 25.1071 529.222C26.4562 530.571 28.286 531.329 30.194 531.329H961.194C963.102 531.329 964.932 530.571 966.281 529.222C967.63 527.873 968.388 526.043 968.388 524.135C968.388 522.227 967.63 520.397 966.281 519.048C964.932 517.699 963.102 516.941 961.194 516.941H30.194Z" fill="#292A2E"/>
<path d="M30.1949 532.329L780.237 532.329C784.762 532.329 788.431 528.661 788.431 524.135C788.431 519.61 784.762 515.942 780.237 515.942L30.1949 515.942C25.6696 515.942 22.0009 519.61 22.0009 524.135C22.0009 528.661 25.6696 532.329 30.1949 532.329Z" fill="white"/>
<path d="M21 524.135C21.0016 521.697 21.9708 519.359 23.6946 517.636C25.4185 515.912 27.7561 514.943 30.194 514.941H780.237C782.675 514.941 785.014 515.91 786.738 517.634C788.462 519.358 789.431 521.697 789.431 524.135C789.431 526.573 788.462 528.912 786.738 530.636C785.014 532.36 782.675 533.329 780.237 533.329H30.194C27.7561 533.327 25.4185 532.358 23.6946 530.634C21.9708 528.91 21.0016 526.573 21 524.135ZM30.194 516.941C28.286 516.941 26.4562 517.699 25.1071 519.048C23.7579 520.397 23 522.227 23 524.135C23 526.043 23.7579 527.873 25.1071 529.222C26.4562 530.571 28.286 531.329 30.194 531.329H780.237C782.145 531.329 783.975 530.571 785.324 529.222C786.673 527.873 787.431 526.043 787.431 524.135C787.431 522.227 786.673 520.397 785.324 519.048C783.975 517.699 782.145 516.941 780.237 516.941H30.194Z" fill="#292A2E"/>
<g filter="url(#filter3_d_915_4913)">
<path d="M494.92 106.887C494.934 94.7801 492.526 82.7927 487.838 71.6303C483.15 60.4679 476.277 50.3559 467.622 41.8894C458.968 33.4229 448.708 26.773 437.445 22.331C426.183 17.889 414.145 15.7445 402.042 16.0239C352.905 17.1289 313.215 57.8999 313.355 107.05C313.378 119.737 316.068 132.277 321.251 143.858C326.434 155.438 333.993 165.799 343.439 174.269C363.763 192.55 375.829 218.262 375.797 245.598V245.698L432.157 245.763V245.663C432.188 218.363 444.25 192.663 464.61 174.469C474.142 165.979 481.771 155.568 486.995 143.92C492.219 132.273 494.919 119.652 494.92 106.887Z" fill="#F7E18D"/>
</g>
<path d="M431.3 115.9C430.367 114.7 428.745 113.954 426.482 113.7C422.646 113.271 418.266 115.444 414.503 119.678L414.138 120.078L413.854 119.624C413.349 118.805 412.774 118.032 412.135 117.313C409.426 114.279 404.544 111.181 396.635 113.622C393.977 114.396 391.533 115.769 389.49 117.637L389.214 117.897L388.939 117.637C388.306 117.061 387.618 116.548 386.886 116.104C382.442 113.395 377.486 114.044 374.113 115.066C373.177 115.351 372.378 115.969 371.865 116.803C371.353 117.636 371.163 118.628 371.331 119.592L393.423 245.853C393.459 246.065 393.579 246.254 393.755 246.378C393.931 246.502 394.149 246.552 394.361 246.515C394.573 246.478 394.762 246.359 394.886 246.183C395.01 246.007 395.059 245.789 395.023 245.577L372.927 119.32C372.825 118.746 372.937 118.154 373.242 117.656C373.547 117.159 374.023 116.79 374.581 116.62C377.639 115.696 382.107 115.095 386.041 117.496C386.687 117.886 387.293 118.34 387.85 118.85L388.126 119.102L387.898 119.394C386.016 121.878 384.966 124.892 384.898 128.007C384.687 133.295 386.982 138.583 390.015 139.783C390.6 140.023 391.24 140.097 391.865 139.999C392.49 139.9 393.076 139.632 393.559 139.224C394.589 138.38 396.159 136.15 395.149 130.708C394.249 125.915 392.7 122.108 390.534 119.37L390.299 119.078L390.575 118.818C392.444 117.117 394.681 115.871 397.111 115.176C402.716 113.449 407.493 114.552 410.916 118.396C411.684 119.262 412.353 120.212 412.911 121.227L413.04 121.454L412.886 121.665C412.586 122.065 412.294 122.476 412.01 122.898C408.734 127.764 406.122 134.69 408.134 138.405C408.53 139.125 409.126 139.716 409.849 140.106C410.573 140.496 411.393 140.669 412.213 140.605H412.286C413.957 140.581 415.36 139.47 416.228 137.491C417.928 133.622 417.428 127.061 415.052 121.879L414.946 121.652L415.109 121.457C418.393 117.483 422.124 115.269 425.465 115.269C425.749 115.269 426.025 115.285 426.301 115.309C430.567 115.796 430.501 118.009 430.486 118.261L412.448 245.63C412.433 245.735 412.439 245.843 412.465 245.946C412.492 246.049 412.539 246.146 412.603 246.231C412.667 246.316 412.747 246.388 412.839 246.442C412.931 246.496 413.032 246.531 413.138 246.546C413.349 246.569 413.562 246.51 413.732 246.382C413.902 246.254 414.017 246.067 414.054 245.857L432.083 118.509C432.17 117.571 431.889 116.635 431.3 115.9ZM393.551 131C394.443 135.793 393.137 137.472 392.529 137.967C392.193 138.257 391.765 138.418 391.321 138.421C391.079 138.418 390.84 138.371 390.615 138.283C388.523 137.447 386.315 133.052 386.515 128.072C386.598 125.456 387.425 122.918 388.9 120.756L389.216 120.302L389.557 120.748C391.637 123.824 393.002 127.327 393.551 131ZM414.743 136.839C414.127 138.239 413.292 138.964 412.262 138.98H412.108C411.597 139.036 411.082 138.938 410.628 138.698C410.174 138.458 409.802 138.087 409.561 137.634C408.161 135.039 409.788 129.094 413.361 123.806L413.799 123.157L414.123 123.822C415.855 128.355 416.114 133.709 414.743 136.839Z" fill="white"/>
<path d="M375.832 245.618L432.192 245.674L432.189 248.968C432.181 256.442 429.205 263.607 423.915 268.886C418.625 274.166 411.454 277.127 403.981 277.12C396.507 277.112 389.342 274.136 384.063 268.846C378.783 263.556 375.821 256.385 375.829 248.912L375.832 245.618Z" fill="#262626"/>
<path d="M257.729 627.099H177.403V650.471H257.729V627.099Z" fill="#F4F4F4"/>
<path opacity="0.05" d="M198.715 627.099H188.19V650.471H198.715V627.099Z" fill="#292A2E"/>
<path d="M247.465 632.179H203.701V646.029H247.465V632.179Z" fill="white"/>
<path d="M321.8 630.148L247.163 597.55L237.809 618.968L312.445 651.566L321.8 630.148Z" fill="#F4F4F4"/>
<path opacity="0.05" d="M321.8 630.148L247.163 597.55L237.809 618.968L312.445 651.566L321.8 630.148Z" fill="#292A2E"/>
<path d="M311.777 625.771L301.997 621.499L292.643 642.917L302.422 647.189L311.777 625.771Z" fill="white"/>
<path d="M295.331 624.13L254.667 606.37L249.124 619.062L289.787 636.822L295.331 624.13Z" fill="white"/>
<path opacity="0.05" d="M321.94 923.175H301.754V936.656H321.94V923.175Z" fill="#292A2E"/>
<path opacity="0.05" d="M115.56 923.175H95.374V936.656H115.56V923.175Z" fill="#292A2E"/>
<path d="M340.444 651.567H76.8701V922.719H340.444V651.567Z" fill="#F4F4F4"/>
<path opacity="0.03" d="M340.444 651.567H76.8701V922.719H340.444V651.567Z" fill="#292A2E"/>
<path d="M389.288 651.567H125.714V922.719H389.288V651.567Z" fill="#F4F4F4"/>
<path opacity="0.05" d="M370.784 923.175H350.598V936.656H370.784V923.175Z" fill="#292A2E"/>
<path opacity="0.05" d="M164.404 923.175H144.218V936.656H164.404V923.175Z" fill="#292A2E"/>
<path opacity="0.7" d="M379.395 664.266H135.609V716.36H379.395V664.266Z" fill="white"/>
<path opacity="0.7" d="M379.395 729.111H135.609V781.205H379.395V729.111Z" fill="white"/>
<path opacity="0.7" d="M379.395 793.954H135.609V846.048H379.395V793.954Z" fill="white"/>
<path opacity="0.05" d="M257.502 697.602C261.528 697.602 264.791 694.339 264.791 690.313C264.791 686.288 261.528 683.024 257.502 683.024C253.477 683.024 250.213 686.288 250.213 690.313C250.213 694.339 253.477 697.602 257.502 697.602Z" fill="#292A2E"/>
<path opacity="0.05" d="M257.502 762.447C261.528 762.447 264.791 759.184 264.791 755.158C264.791 751.133 261.528 747.869 257.502 747.869C253.477 747.869 250.213 751.133 250.213 755.158C250.213 759.184 253.477 762.447 257.502 762.447Z" fill="#292A2E"/>
<path opacity="0.05" d="M257.502 827.291C261.528 827.291 264.791 824.028 264.791 820.002C264.791 815.977 261.528 812.713 257.502 812.713C253.477 812.713 250.213 815.977 250.213 820.002C250.213 824.028 253.477 827.291 257.502 827.291Z" fill="#292A2E"/>
<path opacity="0.7" d="M379.395 860.26H135.609V912.354H379.395V860.26Z" fill="white"/>
<path opacity="0.05" d="M257.502 893.596C261.528 893.596 264.791 890.333 264.791 886.307C264.791 882.282 261.528 879.018 257.502 879.018C253.477 879.018 250.213 882.282 250.213 886.307C250.213 890.333 253.477 893.596 257.502 893.596Z" fill="#292A2E"/>
<path d="M832.784 940.265L834.748 939.888L804.052 635.265L802.088 635.643L832.784 940.265Z" fill="#494949"/>
<path d="M718.486 940.265L720.45 939.888L689.755 635.265L687.791 635.643L718.486 940.265Z" fill="#494949"/>
<path d="M465.838 940.265L463.874 939.888L494.57 635.265L496.534 635.643L465.838 940.265Z" fill="#494949"/>
<path d="M580.136 940.265L578.172 939.888L608.867 635.265L610.831 635.643L580.136 940.265Z" fill="#494949"/>
<path d="M620.835 501.012L602.903 635.316L604.885 635.581L622.817 501.277L620.835 501.012Z" fill="#494949"/>
<path d="M826.657 501.011L808.725 635.315L810.708 635.58L828.64 501.276L826.657 501.011Z" fill="#494949"/>
<path d="M603.083 645.289H804.403C809.835 645.289 814.238 640.886 814.238 635.454V635.453C814.238 630.021 809.835 625.618 804.403 625.618H603.083C597.651 625.618 593.248 630.021 593.248 635.453V635.454C593.248 640.886 597.651 645.289 603.083 645.289Z" fill="#292A2E"/>
<path opacity="0.8" d="M603.083 645.289H804.403C809.835 645.289 814.238 640.886 814.238 635.454V635.453C814.238 630.021 809.835 625.618 804.403 625.618H603.083C597.651 625.618 593.248 630.021 593.248 635.453V635.454C593.248 640.886 597.651 645.289 603.083 645.289Z" fill="white"/>
<path d="M592.248 635.458C592.25 632.585 593.392 629.83 595.424 627.798C597.455 625.765 600.21 624.622 603.083 624.619H804.403C807.277 624.619 810.033 625.761 812.065 627.793C814.097 629.825 815.238 632.581 815.238 635.454C815.238 638.328 814.097 641.084 812.065 643.116C810.033 645.148 807.277 646.289 804.403 646.289H603.083C600.211 646.286 597.458 645.144 595.427 643.113C593.396 641.083 592.253 638.33 592.248 635.458ZM603.083 626.623C600.74 626.623 598.493 627.554 596.836 629.211C595.179 630.868 594.248 633.115 594.248 635.458C594.248 637.801 595.179 640.049 596.836 641.705C598.493 643.362 600.74 644.293 603.083 644.293H804.403C806.746 644.293 808.993 643.362 810.65 641.705C812.307 640.049 813.238 637.801 813.238 635.458C813.238 633.115 812.307 630.868 810.65 629.211C808.993 627.554 806.746 626.623 804.403 626.623H603.083Z" fill="#292A2E"/>
<path d="M492.588 645.289H693.908C699.34 645.289 703.743 640.886 703.743 635.454V635.453C703.743 630.021 699.34 625.618 693.908 625.618H492.588C487.156 625.618 482.753 630.021 482.753 635.453V635.454C482.753 640.886 487.156 645.289 492.588 645.289Z" fill="white"/>
<path d="M481.752 635.458C481.755 632.585 482.898 629.831 484.93 627.8C486.961 625.769 489.715 624.626 492.588 624.623H693.908C696.782 624.623 699.538 625.765 701.569 627.797C703.601 629.829 704.743 632.584 704.743 635.458C704.743 638.332 703.601 641.088 701.569 643.12C699.538 645.152 696.782 646.293 693.908 646.293H492.588C489.715 646.29 486.961 645.147 484.93 643.116C482.899 641.085 481.756 638.331 481.752 635.458ZM492.588 626.623C490.245 626.623 487.998 627.554 486.341 629.211C484.684 630.868 483.753 633.115 483.753 635.458C483.753 637.801 484.684 640.048 486.341 641.705C487.998 643.362 490.245 644.293 492.588 644.293H693.908C696.251 644.293 698.498 643.362 700.155 641.705C701.812 640.048 702.743 637.801 702.743 635.458C702.743 633.115 701.812 630.868 700.155 629.211C698.498 627.554 696.251 626.623 693.908 626.623H492.588Z" fill="#292A2E"/>
<path d="M631.872 501.149H827.119C830.311 501.149 833.394 499.988 835.793 497.881C838.192 495.775 839.742 492.868 840.154 489.702L853.068 390.522C853.31 388.668 853.153 386.784 852.608 384.996C852.064 383.207 851.144 381.556 849.911 380.151C848.677 378.746 847.158 377.621 845.455 376.85C843.752 376.079 841.904 375.68 840.034 375.68H644.783C641.591 375.68 638.508 376.842 636.109 378.949C633.711 381.055 632.16 383.963 631.748 387.128L618.833 486.307C618.592 488.161 618.749 490.046 619.294 491.835C619.838 493.623 620.759 495.275 621.993 496.68C623.227 498.085 624.747 499.21 626.45 499.981C628.154 500.751 630.002 501.15 631.872 501.149Z" fill="#292A2E"/>
<path opacity="0.8" d="M631.872 501.149H827.119C830.311 501.149 833.394 499.988 835.793 497.881C838.192 495.775 839.742 492.868 840.154 489.702L853.068 390.522C853.31 388.668 853.153 386.784 852.608 384.996C852.064 383.207 851.144 381.556 849.911 380.151C848.677 378.746 847.158 377.621 845.455 376.85C843.752 376.079 841.904 375.68 840.034 375.68H644.783C641.591 375.68 638.508 376.842 636.109 378.949C633.711 381.055 632.16 383.963 631.748 387.128L618.833 486.307C618.592 488.161 618.749 490.046 619.294 491.835C619.838 493.623 620.759 495.275 621.993 496.68C623.227 498.085 624.747 499.21 626.45 499.981C628.154 500.751 630.002 501.15 631.872 501.149Z" fill="white"/>
<path d="M621.244 497.338C619.916 495.827 618.926 494.05 618.34 492.126C617.754 490.201 617.585 488.174 617.844 486.179L630.759 386.999C631.209 383.596 632.879 380.472 635.458 378.207C638.037 375.941 641.35 374.688 644.783 374.68H840.034C842.046 374.68 844.034 375.109 845.867 375.939C847.7 376.768 849.334 377.979 850.662 379.491C851.989 381.003 852.979 382.78 853.565 384.704C854.151 386.629 854.32 388.656 854.06 390.651L841.145 489.831C840.694 493.234 839.024 496.359 836.445 498.624C833.866 500.889 830.552 502.142 827.119 502.149H631.872C629.86 502.149 627.872 501.72 626.039 500.89C624.206 500.061 622.571 498.85 621.244 497.338ZM644.783 376.68C641.836 376.688 638.992 377.764 636.778 379.709C634.564 381.654 633.131 384.337 632.744 387.258L619.829 486.438C619.606 488.151 619.751 489.892 620.254 491.544C620.757 493.196 621.607 494.722 622.747 496.02C623.887 497.318 625.29 498.357 626.864 499.07C628.437 499.782 630.145 500.15 631.872 500.15H827.119C830.066 500.144 832.912 499.069 835.126 497.124C837.341 495.179 838.775 492.496 839.162 489.574L852.076 390.394C852.299 388.681 852.154 386.941 851.651 385.288C851.148 383.636 850.299 382.11 849.159 380.812C848.019 379.514 846.616 378.474 845.042 377.762C843.469 377.05 841.761 376.681 840.034 376.681L644.783 376.68Z" fill="#292A2E"/>
<path d="M620.831 501.149H816.083C819.275 501.149 822.358 499.988 824.757 497.881C827.155 495.775 828.706 492.868 829.118 489.702L842.033 390.522C842.274 388.668 842.117 386.784 841.573 384.996C841.028 383.207 840.108 381.556 838.875 380.151C837.641 378.746 836.122 377.621 834.419 376.85C832.715 376.079 830.867 375.68 828.998 375.68H633.746C630.554 375.68 627.471 376.842 625.072 378.949C622.674 381.055 621.124 383.963 620.712 387.128L607.797 486.307C607.555 488.161 607.712 490.045 608.257 491.833C608.801 493.622 609.721 495.274 610.955 496.678C612.188 498.083 613.707 499.208 615.41 499.979C617.113 500.75 618.961 501.149 620.831 501.149Z" fill="white"/>
<path d="M610.203 497.338C608.876 495.827 607.886 494.05 607.299 492.125C606.713 490.201 606.544 488.174 606.803 486.179L619.718 386.999C620.169 383.596 621.839 380.472 624.418 378.206C626.997 375.941 630.311 374.688 633.744 374.68H828.993C831.005 374.68 832.993 375.109 834.826 375.939C836.659 376.768 838.294 377.979 839.621 379.491C840.948 381.003 841.938 382.78 842.524 384.704C843.11 386.629 843.279 388.656 843.019 390.651L830.105 489.831C829.654 493.234 827.985 496.357 825.406 498.622C822.828 500.887 819.515 502.14 816.083 502.149H620.831C618.819 502.149 616.831 501.72 614.998 500.89C613.165 500.061 611.531 498.85 610.203 497.338ZM633.746 376.68C630.798 376.687 627.953 377.763 625.739 379.708C623.524 381.653 622.09 384.336 621.703 387.258L608.788 486.438C608.565 488.151 608.71 489.892 609.213 491.544C609.716 493.196 610.566 494.722 611.706 496.02C612.846 497.318 614.249 498.357 615.823 499.07C617.396 499.782 619.104 500.15 620.831 500.15H816.083C819.031 500.144 821.876 499.069 824.09 497.124C826.305 495.179 827.739 492.496 828.126 489.574L841.041 390.395C841.264 388.682 841.119 386.942 840.616 385.289C840.113 383.637 839.263 382.111 838.123 380.813C836.983 379.515 835.58 378.475 834.006 377.762C832.433 377.05 830.725 376.681 828.998 376.681L633.746 376.68Z" fill="#292A2E"/>
<path d="M674 185L566.591 222.635C565.875 227.55 524.591 231.635 530.591 263.635C555.591 291.135 566.591 316.23 576.591 325.31L601.976 360.948C604.909 363.503 608.318 365.453 612.007 366.687C615.696 367.92 619.592 368.413 623.472 368.136C627.352 367.859 631.139 366.819 634.616 365.074C638.092 363.329 641.19 360.915 643.73 357.97C646.271 355.024 648.205 351.606 649.421 347.911C650.636 344.216 651.11 340.317 650.815 336.439C650.519 332.56 649.46 328.778 647.699 325.31C645.938 321.842 643.508 318.756 640.551 316.23L588.591 263.635L660 214L674 185Z" fill="#E0977B"/>
<path d="M657.085 214.839L646.062 195.078C646.062 195.078 667.207 171.789 695.826 175.982C705.312 177.373 703.907 188.119 700.852 189.401C690.751 193.654 676.23 196.121 670.195 203.355C674.482 203.169 680.356 203.263 680.482 205.168C680.806 210.194 657.085 214.839 657.085 214.839Z" fill="#E0977B"/>
<path d="M672.46 216C672.46 216 659.145 206.411 659.001 187.363C658.885 172.614 675.541 183.813 675.541 183.813C675.541 183.813 675.603 173.193 685.897 175.269C696.191 177.346 700 188.885 700 188.885" fill="#0C0C0C"/>
<path d="M728.944 175.213C728.944 175.213 773.356 186.219 748.695 245.065L744.67 244.786L736.5 244.219" fill="#0C0C0C"/>
<path d="M671.94 306.223C672.14 306.196 674.36 343.023 717.146 339.815C746.766 337.596 757.327 306.17 758.006 306.17C754.812 305.492 750.866 304.462 749.297 304.108C745.879 303.314 742.785 301.498 740.424 298.902C738.064 296.307 736.55 293.054 736.083 289.576C735.216 284.356 736.683 257.648 736.234 252.366L690.767 262.515C691.402 273.67 695.849 299.531 680.267 304.108C677.666 304.865 674.873 305.558 671.94 306.223Z" fill="#E0977B"/>
<path opacity="0.52" d="M690.124 293.539C690.837 291.244 691.295 288.878 691.492 286.482C691.991 281.017 691.89 275.514 691.192 270.07C700.433 268.823 709.139 265.008 716.321 259.06C717.165 262.178 721.808 275.802 720.521 278.76C718.096 284.367 706.677 293.539 690.124 293.539Z" fill="#0C0C0C"/>
<path d="M693 284C710.99 284.841 736 275 741.333 251.242L744.592 229.513C748.203 205.432 738.482 184.013 715.809 180.613C693.136 177.213 673.261 194.194 669.65 218.275L668.207 227.894C667.769 231.206 667.558 234.544 667.574 237.884C667.552 246.712 667.552 260.14 672.215 269.862C676.616 279.04 681.507 283.461 693 284Z" fill="#E0977B"/>
<path d="M689.616 263.954C685.953 263.664 682.419 262.631 679.299 260.937C679.231 260.905 679.172 260.861 679.124 260.809C679.076 260.756 679.041 260.695 679.02 260.631C679 260.566 678.995 260.498 679.005 260.431C679.016 260.365 679.042 260.301 679.082 260.243C679.121 260.185 679.174 260.135 679.237 260.096C679.299 260.056 679.37 260.028 679.446 260.013C679.521 259.998 679.599 259.996 679.676 260.008C679.752 260.02 679.824 260.045 679.889 260.081C686.633 263.585 693.194 263.97 698.872 261.196C698.986 261.137 699.105 261.083 699.226 261.035C699.366 260.99 699.521 260.994 699.658 261.047C699.794 261.099 699.902 261.196 699.958 261.316C700.014 261.436 700.014 261.571 699.958 261.691C699.902 261.811 699.794 261.907 699.657 261.96C699.612 261.977 699.539 262.015 699.436 262.065C696.452 263.529 693.033 264.187 689.616 263.954Z" fill="#0C0C0C"/>
<path d="M676.116 228.787C677.676 228.787 678.94 227.523 678.94 225.963C678.94 224.404 677.676 223.139 676.116 223.139C674.556 223.139 673.292 224.404 673.292 225.963C673.292 227.523 674.556 228.787 676.116 228.787Z" fill="#0C0C0C"/>
<path d="M702.375 230.538C703.935 230.538 705.199 229.274 705.199 227.714C705.199 226.154 703.935 224.89 702.375 224.89C700.815 224.89 699.551 226.154 699.551 227.714C699.551 229.274 700.815 230.538 702.375 230.538Z" fill="#0C0C0C"/>
<path d="M738.825 258.367C745.715 259.4 752.407 252.867 753.44 245.976C754.473 239.085 749.457 234.448 742.567 233.415L738.324 237.499L732.901 257.479L738.825 258.367Z" fill="#E0977B"/>
<path d="M733.477 246.335C733.477 246.335 735.822 211.881 725.76 208.355C719.06 206.007 701.003 213.496 685.923 208.422C679.323 206.202 672.666 206.998 671.573 210.108C671.141 211.339 669.414 192.555 681.915 180.19C691.868 170.345 719.933 171.025 732.015 176.355C765.465 191.113 743.785 235.113 743.785 235.113L740.62 246.668L733.477 246.335Z" fill="#0C0C0C"/>
<path d="M688.63 250.991H688.586C686.365 250.664 682.675 249.868 682.918 248.206C683.118 246.829 689.079 232.521 689.759 230.895C689.786 230.823 689.827 230.757 689.88 230.701C689.933 230.645 689.996 230.6 690.067 230.569C690.138 230.539 690.214 230.523 690.291 230.522C690.368 230.521 690.444 230.536 690.515 230.566C690.587 230.596 690.651 230.639 690.705 230.695C690.759 230.75 690.801 230.815 690.829 230.887C690.856 230.959 690.869 231.036 690.867 231.113C690.864 231.19 690.846 231.265 690.814 231.335C688.17 237.671 684.188 247.435 684.05 248.372C684.211 248.797 686.45 249.52 688.75 249.86C688.895 249.883 689.025 249.961 689.114 250.078C689.204 250.194 689.245 250.34 689.229 250.486C689.213 250.632 689.142 250.766 689.03 250.861C688.918 250.956 688.774 251.004 688.628 250.996L688.63 250.991Z" fill="#0C0C0C"/>
<path d="M685.597 216.697C683.347 215.735 680.879 215.398 678.453 215.722C677.262 215.874 676.101 216.203 675.008 216.699C673.929 217.185 672.915 217.804 671.991 218.543C671.821 218.674 671.708 218.865 671.676 219.077C671.644 219.289 671.694 219.505 671.817 219.681C671.94 219.856 672.126 219.978 672.336 220.02C672.547 220.062 672.765 220.021 672.946 219.906L673.003 219.869C673.844 219.279 674.757 218.797 675.719 218.435C676.665 218.074 677.66 217.857 678.67 217.794C680.661 217.654 682.654 218.041 684.448 218.917L684.523 218.956C684.818 219.108 685.161 219.137 685.477 219.035C685.794 218.934 686.056 218.712 686.208 218.417C686.36 218.122 686.389 217.778 686.288 217.462C686.187 217.146 685.964 216.883 685.669 216.731L685.597 216.697Z" fill="#0C0C0C"/>
<path d="M701.957 220.368C703.854 219.748 705.882 219.639 707.835 220.054C708.827 220.256 709.782 220.607 710.669 221.096C711.571 221.588 712.409 222.191 713.161 222.891L713.21 222.934C713.373 223.075 713.584 223.148 713.799 223.136C714.014 223.125 714.216 223.031 714.363 222.873C714.51 222.716 714.591 222.508 714.588 222.293C714.585 222.077 714.498 221.871 714.347 221.718C713.533 220.859 712.615 220.105 711.613 219.475C710.599 218.833 709.495 218.346 708.337 218.031C705.979 217.376 703.488 217.368 701.126 218.01C700.806 218.1 700.535 218.313 700.373 218.602C700.21 218.891 700.169 219.233 700.258 219.553C700.348 219.872 700.561 220.143 700.85 220.306C701.139 220.469 701.481 220.51 701.801 220.42L701.874 220.397L701.957 220.368Z" fill="#0C0C0C"/>
<path d="M695.159 188.542C701.874 192.419 709.453 191.864 712.088 187.301C714.722 182.739 711.413 175.897 704.698 172.02C697.983 168.143 690.404 168.699 687.77 173.261C685.135 177.824 688.444 184.665 695.159 188.542Z" fill="#0C0C0C"/>
<path opacity="0.8" d="M643.06 863L576.838 624.049H713.238C740.638 624.049 752.06 600.814 752.06 573.416C752.06 546.018 725.125 522 697.726 522H513.636C496.925 522 478.139 541.03 468.968 555C459.797 568.97 462.323 581.807 468.968 597.141L607.027 885" fill="#E0977B"/>
<path opacity="0.8" d="M643.06 863L576.838 624.049H713.238C740.638 624.049 752.06 600.814 752.06 573.416C752.06 546.018 725.125 522 697.726 522H513.636C496.925 522 478.139 541.03 468.968 555C459.797 568.97 462.323 581.807 468.968 597.141L607.027 885" fill="#E0977B"/>
<path d="M594.971 862.477C594.971 862.477 602.935 894.264 578.727 909.255C554.519 924.245 569.699 943 569.699 943L665 891.895L641.576 840L594.971 862.477Z" fill="#394660"/>
<path d="M602.683 660.558L572.683 610.558L700.664 626.184C728.064 626.184 739.486 602.949 739.486 575.551C739.486 548.153 712.551 524.135 685.152 524.135H501.062C484.351 524.135 465.613 534.355 456.442 548.325C447.271 562.295 449.749 583.942 456.394 599.276L501.062 688.558" fill="#820000"/>
<g filter="url(#filter4_d_915_4913)">
<path d="M445 891L571.044 626.003L733.668 625.992C771.774 622.956 789.225 601.734 788.67 574.333C788.123 547.28 760.17 548.558 733.668 548.558H632.683L532.683 548.558C513.075 548.967 488.274 586.492 481 605L405 891" fill="#E0977B"/>
</g>
<path d="M402.778 882C402.778 882 397.468 913.765 371.695 915.536C345.923 917.306 351.511 941 351.511 941H450V884.215L402.778 882Z" fill="#394660"/>
<g filter="url(#filter5_d_915_4913)">
<path d="M554.683 690.558L570.683 625.457H733.668C771.774 622.436 789.225 601.322 788.67 574.06C788.123 547.144 760.17 538.558 733.668 538.558H530.683C511.075 538.965 493.921 542.874 486.646 561.288L459 653" fill="#820000"/>
</g>
<g filter="url(#filter6_d_915_4913)">
<mask id="path-151-inside-2_915_4913" fill="white">
<path d="M559.709 691L576.549 625.899H748.096C788.203 622.878 806.571 601.764 805.986 574.502C805.41 547.586 775.989 539 748.096 539H534.448C513.81 539.407 495.755 543.316 488.099 561.73L459 653.442"/>
</mask>
<path d="M576.549 625.899V624.899H575.775L575.581 625.648L576.549 625.899ZM748.096 625.899V626.899H748.133L748.171 626.896L748.096 625.899ZM805.986 574.502L804.987 574.524L804.987 574.524L805.986 574.502ZM534.448 539V538H534.438L534.429 538L534.448 539ZM488.099 561.73L487.175 561.346L487.159 561.387L487.145 561.428L488.099 561.73ZM560.677 691.25L577.517 626.149L575.581 625.648L558.741 690.75L560.677 691.25ZM576.549 626.899H748.096V624.899H576.549V626.899ZM748.171 626.896C768.378 625.374 783.242 619.284 792.989 610.016C802.752 600.733 807.284 588.355 806.986 574.481L804.987 574.524C805.274 587.912 800.913 599.721 791.611 608.566C782.294 617.426 767.92 623.403 748.021 624.902L748.171 626.896ZM806.986 574.481C806.689 560.568 798.896 551.4 787.736 545.765C776.625 540.154 762.119 538 748.096 538V540C761.966 540 776.118 542.139 786.834 547.55C797.502 552.937 804.708 561.52 804.987 574.524L806.986 574.481ZM748.096 538H534.448V540H748.096V538ZM534.429 538C513.771 538.408 495.089 542.313 487.175 561.346L489.022 562.114C496.421 544.32 513.849 540.406 534.468 540L534.429 538ZM487.145 561.428L458.047 653.139L459.953 653.744L489.052 562.033L487.145 561.428Z" fill="black" mask="url(#path-151-inside-2_915_4913)"/>
</g>
<path d="M806.632 521.104C806.632 521.104 813.969 568.95 802.339 595.551C787.82 628.761 733.392 626.174 733.392 626.174L736.459 520.774L806.632 521.104Z" fill="#820000"/>
<path d="M618.985 387.2C620.332 403.033 629.885 501.81 631.185 521.312H806.758C807.767 503.723 811.041 429.046 814.867 394.651C818.518 361.829 819.844 343.099 815.638 332.9C808.22 314.91 789.657 308.437 773.667 306.272C763.904 304.951 749.219 304.003 749.219 304.003C749.219 304.003 747.975 329.153 718.326 330.553C677.967 332.453 680.663 304 680.463 304C673.925 304 638.334 308.755 629.435 314.555C616.866 322.748 613.152 333.912 613.005 344.169C612.836 355.983 617.453 369.244 618.985 387.2Z" fill="#7D7D7D"/>
<path d="M625.683 468.017H625.725C625.857 468.006 625.979 467.943 626.065 467.842C626.15 467.74 626.192 467.609 626.181 467.477L621.623 412.723C621.619 412.657 621.602 412.593 621.573 412.534C621.543 412.474 621.502 412.422 621.452 412.379C621.401 412.336 621.343 412.304 621.279 412.285C621.216 412.265 621.15 412.259 621.084 412.266C621.019 412.272 620.955 412.29 620.896 412.32C620.838 412.35 620.786 412.391 620.744 412.442C620.701 412.492 620.669 412.55 620.649 412.612C620.629 412.675 620.622 412.741 620.627 412.806L625.183 467.558C625.193 467.684 625.251 467.801 625.343 467.886C625.436 467.971 625.557 468.018 625.683 468.017Z" fill="#0C0C0C"/>
<path d="M542.06 500.879L503.536 382.458C502.86 380.378 501.542 378.564 499.772 377.278C498.002 375.992 495.871 375.298 493.683 375.297H336.727C335.091 375.297 333.478 375.684 332.02 376.427C330.562 377.17 329.301 378.248 328.34 379.571C327.378 380.895 326.744 382.428 326.488 384.044C326.233 385.66 326.364 387.314 326.87 388.869L365.395 507.292C366.072 509.374 367.39 511.187 369.161 512.473C370.931 513.759 373.064 514.452 375.252 514.451H532.203C533.839 514.451 535.452 514.064 536.91 513.321C538.367 512.578 539.629 511.501 540.59 510.177C541.552 508.853 542.186 507.321 542.441 505.705C542.697 504.089 542.566 502.435 542.06 500.879Z" fill="#292A2E"/>
<path d="M542.06 500.879L503.536 382.458C502.86 380.378 501.542 378.564 499.772 377.278C498.002 375.992 495.871 375.298 493.683 375.297H336.727C335.091 375.297 333.478 375.684 332.02 376.427C330.562 377.17 329.301 378.248 328.34 379.571C327.378 380.895 326.744 382.428 326.488 384.044C326.233 385.66 326.364 387.314 326.87 388.869L365.395 507.292C366.072 509.374 367.39 511.187 369.161 512.473C370.931 513.759 373.064 514.452 375.252 514.451H532.203C533.839 514.451 535.452 514.064 536.91 513.321C538.367 512.578 539.629 511.501 540.59 510.177C541.552 508.853 542.186 507.321 542.441 505.705C542.697 504.089 542.566 502.435 542.06 500.879Z" fill="#292A2E"/>
<path d="M615.698 504.848H510.634C508.016 504.848 505.894 506.971 505.894 509.588V509.71C505.894 512.328 508.016 514.45 510.634 514.45H615.698C618.316 514.45 620.438 512.328 620.438 509.71V509.588C620.438 506.971 618.316 504.848 615.698 504.848Z" fill="#292A2E"/>
<path d="M615.698 504.848H510.634C508.016 504.848 505.894 506.971 505.894 509.588V509.71C505.894 512.328 508.016 514.45 510.634 514.45H615.698C618.316 514.45 620.438 512.328 620.438 509.71V509.588C620.438 506.971 618.316 504.848 615.698 504.848Z" fill="#292A2E"/>
<path d="M434.465 467.112C443.556 467.112 450.926 459.743 450.926 450.651C450.926 441.56 443.556 434.19 434.465 434.19C425.374 434.19 418.004 441.56 418.004 450.651C418.004 459.743 425.374 467.112 434.465 467.112Z" fill="white"/>
<path d="M547.13 479.112L543.109 478.835C541.938 478.729 540.852 478.184 540.068 477.309C539.284 476.435 538.861 475.297 538.883 474.123C538.918 473.522 539.074 472.935 539.342 472.395C539.612 471.854 539.989 471.373 540.45 470.981C540.912 470.59 541.448 470.297 542.027 470.12C542.605 469.943 543.214 469.885 543.815 469.951L543.816 469.951L592.958 475.174L591.708 490.635C591.316 495.489 589.483 500.115 586.444 503.92C583.405 507.726 579.299 510.537 574.652 511.993L553.162 518.687L553.162 518.687L553.153 518.69C552.152 519.024 551.067 519.001 550.082 518.626C549.098 518.252 548.273 517.55 547.747 516.638C547.292 515.806 547.115 514.851 547.241 513.911C547.367 512.97 547.79 512.093 548.449 511.41L548.846 510.998L548.439 510.699L549.309 509.514L547.853 509.97L543.895 511.212L543.895 511.212L543.886 511.216C542.77 511.59 541.554 511.527 540.483 511.04C539.415 510.553 538.571 509.68 538.121 508.597C537.758 507.617 537.751 506.541 538.102 505.557C538.454 504.569 539.143 503.738 540.047 503.209L540.82 502.757L540.044 502.344L539.84 502.103L539.523 502.202L537.895 502.712L537.895 502.712L537.885 502.715C536.884 503.052 535.797 503.031 534.809 502.656C533.823 502.282 532.997 501.579 532.47 500.666C531.919 499.657 531.779 498.474 532.08 497.364C532.381 496.252 533.101 495.3 534.088 494.707L534.415 494.511L534.316 494.155L534.3 493.478L533.65 493.706L521.969 497.801C521.969 497.801 521.969 497.801 521.969 497.801C521.452 497.982 520.904 498.06 520.357 498.029C519.81 497.999 519.274 497.861 518.78 497.623C517.783 497.143 517.017 496.287 516.651 495.243C516.285 494.198 516.349 493.051 516.829 492.054C517.308 491.057 518.165 490.291 519.209 489.925L519.471 489.833L519.473 489.823L547.261 480.083L547.13 479.112ZM543.869 469.454L543.869 469.454L543.869 469.454Z" fill="#E0977B" stroke="black"/>
<path opacity="0.2" d="M551.083 488.982C551.134 488.982 551.184 488.973 551.232 488.956L561.794 485.115C561.848 485.095 561.897 485.065 561.939 485.027C561.981 484.988 562.015 484.941 562.039 484.889C562.063 484.837 562.077 484.781 562.079 484.724C562.081 484.667 562.073 484.61 562.053 484.556C562.033 484.502 562.003 484.453 561.964 484.411C561.926 484.369 561.879 484.335 561.827 484.311C561.775 484.287 561.719 484.273 561.662 484.271C561.605 484.269 561.548 484.277 561.494 484.297L550.931 488.138C550.835 488.173 550.754 488.241 550.702 488.329C550.651 488.418 550.633 488.522 550.651 488.623C550.668 488.724 550.721 488.815 550.8 488.881C550.878 488.946 550.977 488.982 551.08 488.982H551.083Z" fill="#0A0A0A"/>
<path opacity="0.2" d="M556.42 496.658C556.47 496.658 556.519 496.65 556.566 496.633L564.891 493.678C564.946 493.66 564.997 493.631 565.041 493.593C565.085 493.555 565.12 493.509 565.146 493.457C565.171 493.405 565.186 493.348 565.19 493.29C565.193 493.232 565.185 493.174 565.166 493.12C565.146 493.065 565.116 493.015 565.077 492.972C565.038 492.929 564.991 492.895 564.938 492.87C564.886 492.846 564.829 492.832 564.771 492.83C564.713 492.828 564.655 492.838 564.601 492.858L556.275 495.813C556.178 495.847 556.097 495.915 556.045 496.003C555.993 496.092 555.974 496.196 555.992 496.297C556.009 496.398 556.061 496.49 556.14 496.556C556.218 496.622 556.317 496.658 556.42 496.658Z" fill="#0A0A0A"/>
<path opacity="0.2" d="M564.26 504.458C564.313 504.458 564.365 504.448 564.415 504.429L568.315 502.942C568.423 502.901 568.51 502.818 568.557 502.713C568.604 502.608 568.607 502.488 568.566 502.38C568.525 502.272 568.442 502.185 568.337 502.138C568.232 502.091 568.112 502.088 568.004 502.129L564.104 503.617C564.009 503.653 563.93 503.722 563.881 503.81C563.831 503.899 563.814 504.002 563.832 504.102C563.851 504.202 563.904 504.292 563.981 504.357C564.059 504.422 564.158 504.458 564.259 504.458H564.26Z" fill="#0A0A0A"/>
<path d="M709.475 461.157L747.585 345.671L808.698 371.366L756.976 491.382L756.974 491.386L756.469 492.581C756.469 492.582 756.469 492.583 756.468 492.584C753.969 498.345 749.759 503.198 744.41 506.487C739.061 509.776 732.831 511.342 726.563 510.973C726.561 510.973 726.559 510.973 726.557 510.973L585.5 499.539V473.454L709.048 461.498L709.373 461.467L709.475 461.157Z" fill="#E0977B" stroke="black"/>
<path d="M585 475L709 463L747.28 347L809.357 373.1L757.435 493.58L756.928 494.78C754.388 500.636 750.109 505.57 744.671 508.913C739.234 512.257 732.9 513.848 726.528 513.472L585 502V475Z" fill="#E0977B"/>
<path d="M242.51 524.038L200.353 941.387L202.343 941.588L244.5 524.239L242.51 524.038Z" fill="#494949"/>
<path d="M925.945 524.033L923.955 524.234L966.142 941.581L968.132 941.379L925.945 524.033Z" fill="#494949"/>
<path d="M751.648 524.033L749.658 524.235L791.844 941.581L793.834 941.38L751.648 524.033Z" fill="#494949"/>
<path d="M68.2122 524.037L26.0549 941.386L28.0448 941.587L70.2021 524.238L68.2122 524.037Z" fill="#494949"/>
<path d="M30.1951 532.329L961.198 532.329C965.724 532.329 969.392 528.661 969.392 524.136C969.392 519.61 965.724 515.942 961.198 515.942L30.1951 515.942C25.6697 515.942 22.0011 519.61 22.0011 524.136C22.0011 528.661 25.6697 532.329 30.1951 532.329Z" fill="#292A2E"/>
<path opacity="0.8" d="M30.1951 532.329L961.198 532.329C965.724 532.329 969.392 528.661 969.392 524.136C969.392 519.61 965.724 515.942 961.198 515.942L30.1951 515.942C25.6697 515.942 22.0011 519.61 22.0011 524.136C22.0011 528.661 25.6697 532.329 30.1951 532.329Z" fill="white"/>
<path d="M21 524.135C21.0016 521.697 21.9708 519.36 23.6946 517.636C25.4185 515.912 27.7561 514.943 30.194 514.941H961.194C963.632 514.941 965.971 515.91 967.695 517.634C969.419 519.358 970.388 521.697 970.388 524.135C970.388 526.574 969.419 528.912 967.695 530.636C965.971 532.361 963.632 533.329 961.194 533.329H30.194C27.7561 533.328 25.4185 532.358 23.6946 530.635C21.9708 528.911 21.0016 526.573 21 524.135ZM30.194 516.941C28.286 516.941 26.4562 517.699 25.1071 519.048C23.7579 520.397 23 522.227 23 524.135C23 526.043 23.7579 527.873 25.1071 529.222C26.4562 530.571 28.286 531.329 30.194 531.329H961.194C963.102 531.329 964.932 530.571 966.281 529.222C967.63 527.873 968.388 526.043 968.388 524.135C968.388 522.227 967.63 520.397 966.281 519.048C964.932 517.699 963.102 516.941 961.194 516.941H30.194Z" fill="#292A2E"/>
<path d="M30.1949 532.329L780.237 532.329C784.762 532.329 788.431 528.661 788.431 524.136C788.431 519.61 784.762 515.942 780.237 515.942L30.1949 515.942C25.6696 515.942 22.0009 519.61 22.0009 524.136C22.0009 528.661 25.6696 532.329 30.1949 532.329Z" fill="white"/>
<path d="M21 524.135C21.0016 521.697 21.9708 519.36 23.6946 517.636C25.4185 515.912 27.7561 514.943 30.194 514.941H780.237C782.675 514.941 785.014 515.91 786.738 517.634C788.462 519.358 789.431 521.697 789.431 524.135C789.431 526.574 788.462 528.912 786.738 530.636C785.014 532.361 782.675 533.329 780.237 533.329H30.194C27.7561 533.328 25.4185 532.358 23.6946 530.635C21.9708 528.911 21.0016 526.573 21 524.135ZM30.194 516.941C28.286 516.941 26.4562 517.699 25.1071 519.048C23.7579 520.397 23 522.227 23 524.135C23 526.043 23.7579 527.873 25.1071 529.222C26.4562 530.571 28.286 531.329 30.194 531.329H780.237C782.145 531.329 783.975 530.571 785.324 529.222C786.673 527.873 787.431 526.043 787.431 524.135C787.431 522.227 786.673 520.397 785.324 519.048C783.975 517.699 782.145 516.941 780.237 516.941H30.194Z" fill="#292A2E"/>
<g filter="url(#filter7_d_915_4913)">
<path d="M494.92 106.887C494.934 94.7803 492.526 82.7929 487.838 71.6305C483.15 60.4681 476.277 50.3561 467.622 41.8897C458.968 33.4232 448.708 26.7733 437.445 22.3312C426.183 17.8892 414.145 15.7448 402.042 16.0242C352.905 17.1292 313.215 57.9002 313.355 107.05C313.378 119.737 316.068 132.278 321.251 143.858C326.434 155.438 333.993 165.799 343.439 174.269C363.763 192.55 375.829 218.262 375.797 245.598V245.698L432.157 245.763V245.663C432.188 218.363 444.25 192.663 464.61 174.469C474.142 165.979 481.771 155.568 486.995 143.921C492.219 132.273 494.919 119.652 494.92 106.887Z" fill="#E4C23F"/>
</g>
<path d="M431.3 115.9C430.367 114.7 428.745 113.954 426.482 113.7C422.646 113.271 418.266 115.444 414.503 119.678L414.138 120.078L413.854 119.624C413.349 118.806 412.774 118.032 412.135 117.313C409.426 114.279 404.544 111.181 396.635 113.622C393.977 114.396 391.533 115.77 389.49 117.637L389.214 117.897L388.939 117.637C388.306 117.061 387.618 116.548 386.886 116.104C382.442 113.395 377.486 114.044 374.113 115.066C373.177 115.352 372.378 115.969 371.865 116.803C371.353 117.636 371.163 118.628 371.331 119.592L393.423 245.853C393.459 246.065 393.579 246.254 393.755 246.379C393.931 246.503 394.149 246.552 394.361 246.515C394.573 246.479 394.762 246.359 394.886 246.183C395.01 246.007 395.059 245.789 395.023 245.577L372.927 119.32C372.825 118.746 372.937 118.154 373.242 117.657C373.547 117.159 374.023 116.791 374.581 116.62C377.639 115.696 382.107 115.095 386.041 117.496C386.687 117.887 387.293 118.34 387.85 118.85L388.126 119.102L387.898 119.394C386.016 121.878 384.966 124.892 384.898 128.007C384.687 133.295 386.982 138.583 390.015 139.783C390.6 140.023 391.24 140.098 391.865 139.999C392.49 139.901 393.076 139.633 393.559 139.224C394.589 138.38 396.159 136.15 395.149 130.708C394.249 125.915 392.7 122.108 390.534 119.37L390.299 119.078L390.575 118.818C392.444 117.118 394.681 115.871 397.111 115.176C402.716 113.449 407.493 114.552 410.916 118.396C411.684 119.263 412.353 120.212 412.911 121.227L413.04 121.454L412.886 121.665C412.586 122.065 412.294 122.476 412.01 122.898C408.734 127.764 406.122 134.69 408.134 138.405C408.53 139.125 409.126 139.716 409.849 140.106C410.573 140.496 411.393 140.67 412.213 140.605H412.286C413.957 140.581 415.36 139.47 416.228 137.491C417.928 133.622 417.428 127.061 415.052 121.879L414.946 121.652L415.109 121.457C418.393 117.483 422.124 115.269 425.465 115.269C425.749 115.269 426.025 115.285 426.301 115.309C430.567 115.796 430.501 118.009 430.486 118.261L412.448 245.63C412.433 245.736 412.439 245.843 412.465 245.946C412.492 246.049 412.539 246.146 412.603 246.231C412.667 246.316 412.747 246.388 412.839 246.442C412.931 246.496 413.032 246.532 413.138 246.546C413.349 246.569 413.562 246.51 413.732 246.383C413.902 246.255 414.017 246.067 414.054 245.857L432.083 118.509C432.17 117.571 431.889 116.635 431.3 115.9ZM393.551 131C394.443 135.793 393.137 137.472 392.529 137.967C392.193 138.257 391.765 138.418 391.321 138.421C391.079 138.418 390.84 138.372 390.615 138.283C388.523 137.447 386.315 133.052 386.515 128.072C386.598 125.456 387.425 122.918 388.9 120.756L389.216 120.302L389.557 120.748C391.637 123.824 393.002 127.327 393.551 131ZM414.743 136.839C414.127 138.239 413.292 138.964 412.262 138.98H412.108C411.597 139.036 411.082 138.938 410.628 138.698C410.174 138.458 409.802 138.087 409.561 137.634C408.161 135.039 409.788 129.094 413.361 123.806L413.799 123.157L414.123 123.822C415.855 128.355 416.114 133.709 414.743 136.839Z" fill="white"/>
<path d="M375.832 245.618L432.192 245.674L432.189 248.968C432.181 256.442 429.205 263.607 423.915 268.886C418.625 274.166 411.454 277.128 403.981 277.12C396.507 277.113 389.342 274.137 384.063 268.846C378.783 263.556 375.821 256.386 375.829 248.912L375.832 245.618Z" fill="#262626"/>
<path d="M650.296 305.008C657.082 310.709 661 319.117 661 327.98L661 349.887C661 375.662 630.642 389.437 611.245 372.464L565 332L611 272L650.296 305.008Z" fill="#7D7D7D"/>
<path d="M780.534 308.73L796.63 314.589C810.877 319.774 818.873 334.914 815.125 349.604L788.649 453.353L706.644 425.489L742.724 326.362C748.296 311.052 765.225 303.158 780.534 308.73Z" fill="#7D7D7D" stroke="black"/>
<g filter="url(#filter8_d_915_4913)">
<mask id="path-181-inside-3_915_4913" fill="white">
<path d="M666 228C666 225.791 667.791 224 670 224H683C685.209 224 687 225.791 687 228V234C687 236.209 685.209 238 683 238H670C667.791 238 666 236.209 666 234V228Z"/>
</mask>
<path d="M666 228C666 225.239 668.239 223 671 223H682C684.761 223 687 225.239 687 228C687 226.343 685.209 225 683 225H670C667.791 225 666 226.343 666 228ZM687 238H666H687ZM666 238V224V238ZM687 224V238V224Z" fill="black" mask="url(#path-181-inside-3_915_4913)"/>
</g>
<mask id="path-183-inside-4_915_4913" fill="white">
<path d="M666 228C666 225.791 667.791 224 670 224H683C685.209 224 687 225.791 687 228V234C687 236.209 685.209 238 683 238H670C667.791 238 666 236.209 666 234V228Z"/>
</mask>
<path d="M666 224H687H666ZM687 234C687 236.761 684.761 239 682 239H671C668.239 239 666 236.761 666 234C666 235.657 667.791 237 670 237H683C685.209 237 687 235.657 687 234ZM666 238V224V238ZM687 224V238V224Z" fill="black" fill-opacity="0.1" mask="url(#path-183-inside-4_915_4913)"/>
<g filter="url(#filter9_d_915_4913)">
<mask id="path-185-inside-5_915_4913" fill="white">
<path d="M692 228C692 225.791 693.791 224 696 224H709C711.209 224 713 225.791 713 228V234C713 236.209 711.209 238 709 238H696C693.791 238 692 236.209 692 234V228Z"/>
</mask>
<path d="M692 228C692 225.239 694.239 223 697 223H708C710.761 223 713 225.239 713 228C713 226.343 711.209 225 709 225H696C693.791 225 692 226.343 692 228ZM713 238H692H713ZM692 238V224V238ZM713 224V238V224Z" fill="black" mask="url(#path-185-inside-5_915_4913)"/>
</g>
<mask id="path-187-inside-6_915_4913" fill="white">
<path d="M692 228C692 225.791 693.791 224 696 224H709C711.209 224 713 225.791 713 228V234C713 236.209 711.209 238 709 238H696C693.791 238 692 236.209 692 234V228Z"/>
</mask>
<path d="M692 224H713H692ZM713 234C713 236.761 710.761 239 708 239H697C694.239 239 692 236.761 692 234C692 235.657 693.791 237 696 237H709C711.209 237 713 235.657 713 234ZM692 238V224V238ZM713 224V238V224Z" fill="black" fill-opacity="0.1" mask="url(#path-187-inside-6_915_4913)"/>
<line x1="687" y1="229.5" x2="692" y2="229.5" stroke="black"/>
<line x1="713.033" y1="227.501" x2="743.033" y2="229.501" stroke="black"/>
<path d="M289.1 463.312H333.5V515.612H289.1V463.312Z" fill="#F22828"/>
<path d="M288 463H335V469H288V463Z" fill="#292A2E"/>
<path d="M290.4 510.713C280.3 510.713 272 502.513 272 492.313C272 482.113 280.2 473.913 290.4 473.913C300.6 473.913 308.8 482.113 308.8 492.313C308.8 502.513 300.6 510.713 290.4 510.713ZM290.4 478.013C282.5 478.013 276 484.413 276 492.413C276 500.413 282.4 506.813 290.4 506.813C298.4 506.813 304.8 500.413 304.8 492.413C304.8 484.413 298.3 478.013 290.4 478.013Z" fill="#F22828"/>
<g opacity="0.41">
<path d="M318.3 459.912C317.8 459.912 317.4 459.712 317.1 459.312C316.9 459.012 312.3 452.812 313.7 446.012C314.5 442.112 317.1 438.812 321.3 436.312C326.3 433.412 326.6 431.512 326.5 430.912C326.3 429.312 323.1 427.912 321.6 427.512C320.8 427.312 320.3 426.512 320.5 425.712C320.7 424.912 321.5 424.412 322.3 424.612C323 424.812 328.8 426.512 329.4 430.512C329.8 433.312 327.6 436.012 322.7 438.912C319.2 441.012 317.1 443.612 316.5 446.612C315.4 452.112 319.4 457.412 319.4 457.512C319.9 458.212 319.8 459.112 319.1 459.612C318.9 459.812 318.6 459.912 318.3 459.912Z" fill="#DACEBA"/>
</g>
<g opacity="0.41">
<path d="M301.8 458.412C301.1 458.412 300.5 457.912 300.3 457.312C300.1 456.512 300.6 455.712 301.4 455.512C303.6 455.012 303.9 454.412 303.9 454.412C303.9 454.012 303.4 452.512 295.2 447.712C292.9 446.412 292.6 444.812 292.6 443.712C292.9 438.712 303.9 433.812 306.1 432.912C306.9 432.612 307.7 432.912 308.1 433.712C308.4 434.512 308.1 435.312 307.3 435.712C301.8 438.112 295.7 441.912 295.6 444.012C295.6 444.412 295.9 444.812 296.7 445.212C303.4 449.112 307.3 452.012 306.8 454.912C306.4 457.412 303.1 458.212 302.1 458.512C302 458.412 301.9 458.412 301.8 458.412Z" fill="#DACEBA"/>
</g>
<g opacity="0.41">
<path d="M310.1 425.513C309.7 425.513 309.4 425.412 309.1 425.112C308.5 424.512 308.5 423.613 309 423.013C309.8 422.213 311.9 419.313 311.4 417.513C311.2 416.713 310.3 416.012 308.9 415.612C306.3 414.812 305.5 413.312 305.3 412.112C304.5 407.812 311.2 402.413 312.6 401.313C313.3 400.813 314.2 400.912 314.7 401.612C315.2 402.312 315.1 403.212 314.4 403.712C311.7 405.812 307.9 409.712 308.2 411.612C308.3 412.112 308.8 412.412 309.7 412.712C312.2 413.512 313.7 414.812 314.2 416.712C315.2 420.512 311.5 424.513 311.1 425.013C310.9 425.413 310.5 425.513 310.1 425.513Z" fill="#DACEBA"/>
</g>
</g>
<defs>
<filter id="filter0_d_915_4913" x="401" y="548.548" width="391.683" height="350.451" filterUnits="userSpaceOnUse" color-interpolation-filters="sRGB">
<feFlood flood-opacity="0" result="BackgroundImageFix"/>
<feColorMatrix in="SourceAlpha" type="matrix" values="0 0 0 0 0 0 0 0 0 0 0 0 0 0 0 0 0 0 127 0" result="hardAlpha"/>
<feOffset dy="4"/>
<feGaussianBlur stdDeviation="2"/>
<feComposite in2="hardAlpha" operator="out"/>
<feColorMatrix type="matrix" values="0 0 0 0 0 0 0 0 0 0 0 0 0 0 0 0 0 0 0.25 0"/>
<feBlend mode="normal" in2="BackgroundImageFix" result="effect1_dropShadow_915_4913"/>
<feBlend mode="normal" in="SourceGraphic" in2="effect1_dropShadow_915_4913" result="shape"/>
</filter>
<filter id="filter1_d_915_4913" x="459" y="538.558" width="338.683" height="160" filterUnits="userSpaceOnUse" color-interpolation-filters="sRGB">
<feFlood flood-opacity="0" result="BackgroundImageFix"/>
<feColorMatrix in="SourceAlpha" type="matrix" values="0 0 0 0 0 0 0 0 0 0 0 0 0 0 0 0 0 0 127 0" result="hardAlpha"/>
<feOffset dx="5" dy="4"/>
<feGaussianBlur stdDeviation="2"/>
<feComposite in2="hardAlpha" operator="out"/>
<feColorMatrix type="matrix" values="0 0 0 0 0 0 0 0 0 0 0 0 0 0 0 0 0 0 0.5 0"/>
<feBlend mode="normal" in2="BackgroundImageFix" result="effect1_dropShadow_915_4913"/>
<feBlend mode="normal" in="SourceGraphic" in2="effect1_dropShadow_915_4913" result="shape"/>
</filter>
<filter id="filter2_d_915_4913" x="459" y="539" width="356" height="160" filterUnits="userSpaceOnUse" color-interpolation-filters="sRGB">
<feFlood flood-opacity="0" result="BackgroundImageFix"/>
<feColorMatrix in="SourceAlpha" type="matrix" values="0 0 0 0 0 0 0 0 0 0 0 0 0 0 0 0 0 0 127 0" result="hardAlpha"/>
<feOffset dx="5" dy="4"/>
<feGaussianBlur stdDeviation="2"/>
<feComposite in2="hardAlpha" operator="out"/>
<feColorMatrix type="matrix" values="0 0 0 0 0 0 0 0 0 0 0 0 0 0 0 0 0 0 0.5 0"/>
<feBlend mode="normal" in2="BackgroundImageFix" result="effect1_dropShadow_915_4913"/>
<feBlend mode="normal" in="SourceGraphic" in2="effect1_dropShadow_915_4913" result="shape"/>
</filter>
<filter id="filter3_d_915_4913" x="293.354" y="-0.000244141" width="221.565" height="269.763" filterUnits="userSpaceOnUse" color-interpolation-filters="sRGB">
<feFlood flood-opacity="0" result="BackgroundImageFix"/>
<feColorMatrix in="SourceAlpha" type="matrix" values="0 0 0 0 0 0 0 0 0 0 0 0 0 0 0 0 0 0 127 0" result="hardAlpha"/>
<feOffset dy="4"/>
<feGaussianBlur stdDeviation="10"/>
<feComposite in2="hardAlpha" operator="out"/>
<feColorMatrix type="matrix" values="0 0 0 0 0 0 0 0 0 0 0 0 0 0 0 0 0 0 0.25 0"/>
<feBlend mode="normal" in2="BackgroundImageFix" result="effect1_dropShadow_915_4913"/>
<feBlend mode="normal" in="SourceGraphic" in2="effect1_dropShadow_915_4913" result="shape"/>
</filter>
<filter id="filter4_d_915_4913" x="401" y="548.549" width="391.683" height="350.451" filterUnits="userSpaceOnUse" color-interpolation-filters="sRGB">
<feFlood flood-opacity="0" result="BackgroundImageFix"/>
<feColorMatrix in="SourceAlpha" type="matrix" values="0 0 0 0 0 0 0 0 0 0 0 0 0 0 0 0 0 0 127 0" result="hardAlpha"/>
<feOffset dy="4"/>
<feGaussianBlur stdDeviation="2"/>
<feComposite in2="hardAlpha" operator="out"/>
<feColorMatrix type="matrix" values="0 0 0 0 0 0 0 0 0 0 0 0 0 0 0 0 0 0 0.25 0"/>
<feBlend mode="normal" in2="BackgroundImageFix" result="effect1_dropShadow_915_4913"/>
<feBlend mode="normal" in="SourceGraphic" in2="effect1_dropShadow_915_4913" result="shape"/>
</filter>
<filter id="filter5_d_915_4913" x="459" y="538.558" width="338.683" height="160" filterUnits="userSpaceOnUse" color-interpolation-filters="sRGB">
<feFlood flood-opacity="0" result="BackgroundImageFix"/>
<feColorMatrix in="SourceAlpha" type="matrix" values="0 0 0 0 0 0 0 0 0 0 0 0 0 0 0 0 0 0 127 0" result="hardAlpha"/>
<feOffset dx="5" dy="4"/>
<feGaussianBlur stdDeviation="2"/>
<feComposite in2="hardAlpha" operator="out"/>
<feColorMatrix type="matrix" values="0 0 0 0 0 0 0 0 0 0 0 0 0 0 0 0 0 0 0.5 0"/>
<feBlend mode="normal" in2="BackgroundImageFix" result="effect1_dropShadow_915_4913"/>
<feBlend mode="normal" in="SourceGraphic" in2="effect1_dropShadow_915_4913" result="shape"/>
</filter>
<filter id="filter6_d_915_4913" x="459" y="539" width="356" height="160" filterUnits="userSpaceOnUse" color-interpolation-filters="sRGB">
<feFlood flood-opacity="0" result="BackgroundImageFix"/>
<feColorMatrix in="SourceAlpha" type="matrix" values="0 0 0 0 0 0 0 0 0 0 0 0 0 0 0 0 0 0 127 0" result="hardAlpha"/>
<feOffset dx="5" dy="4"/>
<feGaussianBlur stdDeviation="2"/>
<feComposite in2="hardAlpha" operator="out"/>
<feColorMatrix type="matrix" values="0 0 0 0 0 0 0 0 0 0 0 0 0 0 0 0 0 0 0.5 0"/>
<feBlend mode="normal" in2="BackgroundImageFix" result="effect1_dropShadow_915_4913"/>
<feBlend mode="normal" in="SourceGraphic" in2="effect1_dropShadow_915_4913" result="shape"/>
</filter>
<filter id="filter7_d_915_4913" x="293.354" y="0" width="221.565" height="269.763" filterUnits="userSpaceOnUse" color-interpolation-filters="sRGB">
<feFlood flood-opacity="0" result="BackgroundImageFix"/>
<feColorMatrix in="SourceAlpha" type="matrix" values="0 0 0 0 0 0 0 0 0 0 0 0 0 0 0 0 0 0 127 0" result="hardAlpha"/>
<feOffset dy="4"/>
<feGaussianBlur stdDeviation="10"/>
<feComposite in2="hardAlpha" operator="out"/>
<feColorMatrix type="matrix" values="0 0 0 0 0 0 0 0 0 0 0 0 0 0 0 0 0 0 0.25 0"/>
<feBlend mode="normal" in2="BackgroundImageFix" result="effect1_dropShadow_915_4913"/>
<feBlend mode="normal" in="SourceGraphic" in2="effect1_dropShadow_915_4913" result="shape"/>
</filter>
<filter id="filter8_d_915_4913" x="662" y="224" width="29" height="26" filterUnits="userSpaceOnUse" color-interpolation-filters="sRGB">
<feFlood flood-opacity="0" result="BackgroundImageFix"/>
<feColorMatrix in="SourceAlpha" type="matrix" values="0 0 0 0 0 0 0 0 0 0 0 0 0 0 0 0 0 0 127 0" result="hardAlpha"/>
<feOffset dy="8"/>
<feGaussianBlur stdDeviation="2"/>
<feComposite in2="hardAlpha" operator="out"/>
<feColorMatrix type="matrix" values="0 0 0 0 0 0 0 0 0 0 0 0 0 0 0 0 0 0 1 0"/>
<feBlend mode="normal" in2="BackgroundImageFix" result="effect1_dropShadow_915_4913"/>
<feBlend mode="normal" in="SourceGraphic" in2="effect1_dropShadow_915_4913" result="shape"/>
</filter>
<filter id="filter9_d_915_4913" x="692" y="224" width="29" height="26" filterUnits="userSpaceOnUse" color-interpolation-filters="sRGB">
<feFlood flood-opacity="0" result="BackgroundImageFix"/>
<feColorMatrix in="SourceAlpha" type="matrix" values="0 0 0 0 0 0 0 0 0 0 0 0 0 0 0 0 0 0 127 0" result="hardAlpha"/>
<feOffset dx="4" dy="8"/>
<feGaussianBlur stdDeviation="2"/>
<feComposite in2="hardAlpha" operator="out"/>
<feColorMatrix type="matrix" values="0 0 0 0 0 0 0 0 0 0 0 0 0 0 0 0 0 0 1 0"/>
<feBlend mode="normal" in2="BackgroundImageFix" result="effect1_dropShadow_915_4913"/>
<feBlend mode="normal" in="SourceGraphic" in2="effect1_dropShadow_915_4913" result="shape"/>
</filter>
<clipPath id="clip0_915_4913">
<rect width="991.824" height="939.027" fill="white"/>
</clipPath>
</defs>
</svg>
