<svg width="986" height="730" viewBox="0 0 986 730" fill="none" xmlns="http://www.w3.org/2000/svg">
<g clip-path="url(#clip0_915_5262)">
<path d="M26.0408 554.4C-30.9242 438.935 4.5098 307.928 142.794 261.912C249.048 226.553 412.005 223.591 479.814 114.974C589.731 -61.0951 864.266 -41.4071 962.871 218.938C1052.59 455.831 866.249 832.265 614.228 702.78C404.216 594.88 370.428 714.831 233.893 706.107C128.6 699.379 45.2578 593.352 26.0408 554.4Z" fill="#5957C9"/>
<g opacity="0.75">
<path d="M26.0408 554.4C-30.9242 438.935 4.5098 307.928 142.794 261.912C249.048 226.553 412.005 223.591 479.814 114.974C589.731 -61.0951 864.266 -41.4071 962.871 218.938C1052.59 455.831 866.249 832.265 614.228 702.78C404.216 594.88 370.428 714.831 233.893 706.107C128.6 699.379 45.2578 593.352 26.0408 554.4Z" fill="#CEFFED"/>
</g>
<g opacity="0.18">
<path d="M326.365 267.494C328.622 267.494 330.452 265.664 330.452 263.407C330.452 261.15 328.622 259.32 326.365 259.32C324.108 259.32 322.278 261.15 322.278 263.407C322.278 265.664 324.108 267.494 326.365 267.494Z" fill="white"/>
<path d="M364.627 346.533C368.73 346.533 372.057 343.206 372.057 339.103C372.057 334.999 368.73 331.673 364.627 331.673C360.523 331.673 357.197 334.999 357.197 339.103C357.197 343.206 360.523 346.533 364.627 346.533Z" fill="white"/>
<path d="M599.522 139.336C603.625 139.336 606.952 136.009 606.952 131.906C606.952 127.802 603.625 124.476 599.522 124.476C595.418 124.476 592.092 127.802 592.092 131.906C592.092 136.009 595.418 139.336 599.522 139.336Z" fill="white"/>
<path d="M364 553.273C366.124 553.273 367.847 551.551 367.847 549.426C367.847 547.301 366.124 545.579 364 545.579C361.875 545.579 360.153 547.301 360.153 549.426C360.153 551.551 361.875 553.273 364 553.273Z" fill="white"/>
<path d="M703.133 465.862C709.112 465.862 713.96 461.015 713.96 455.035C713.96 449.055 709.112 444.208 703.133 444.208C697.153 444.208 692.306 449.055 692.306 455.035C692.306 461.015 697.153 465.862 703.133 465.862Z" fill="white"/>
<path d="M320.336 651.355C323.665 651.355 326.365 648.656 326.365 645.326C326.365 641.996 323.665 639.297 320.336 639.297C317.006 639.297 314.307 641.996 314.307 645.326C314.307 648.656 317.006 651.355 320.336 651.355Z" fill="white"/>
<path d="M783.715 100.908C789.655 100.908 794.47 96.0928 794.47 90.1529C794.47 84.2131 789.655 79.3979 783.715 79.3979C777.776 79.3979 772.96 84.2131 772.96 90.1529C772.96 96.0928 777.776 100.908 783.715 100.908Z" fill="white"/>
<path d="M714.03 290.933C717.038 290.933 719.478 288.494 719.478 285.485C719.478 282.476 717.038 280.037 714.03 280.037C711.021 280.037 708.582 282.476 708.582 285.485C708.582 288.494 711.021 290.933 714.03 290.933Z" fill="white"/>
<path d="M55.1516 410.784C58.1605 410.784 60.5996 408.345 60.5996 405.336C60.5996 402.327 58.1605 399.888 55.1516 399.888C52.1428 399.888 49.7036 402.327 49.7036 405.336C49.7036 408.345 52.1428 410.784 55.1516 410.784Z" fill="white"/>
<path d="M522.836 413.651C526.79 413.651 529.995 410.446 529.995 406.492C529.995 402.538 526.79 399.333 522.836 399.333C518.882 399.333 515.677 402.538 515.677 406.492C515.677 410.446 518.882 413.651 522.836 413.651Z" fill="white"/>
<path d="M448.682 615.161C451.651 615.161 454.059 612.754 454.059 609.784C454.059 606.814 451.651 604.407 448.682 604.407C445.712 604.407 443.305 606.814 443.305 609.784C443.305 612.754 445.712 615.161 448.682 615.161Z" fill="white"/>
<path d="M820.298 330.658C826.545 330.658 831.609 325.594 831.609 319.347C831.609 313.1 826.545 308.036 820.298 308.036C814.051 308.036 808.987 313.1 808.987 319.347C808.987 325.594 814.051 330.658 820.298 330.658Z" fill="white"/>
<path d="M880.851 177.842C884.526 177.842 887.505 174.863 887.505 171.188C887.505 167.513 884.526 164.534 880.851 164.534C877.176 164.534 874.197 167.513 874.197 171.188C874.197 174.863 877.176 177.842 880.851 177.842Z" fill="white"/>
<path d="M508.442 554.204C512.437 554.204 515.676 550.966 515.676 546.971C515.676 542.976 512.437 539.738 508.442 539.738C504.448 539.738 501.209 542.976 501.209 546.971C501.209 550.966 504.448 554.204 508.442 554.204Z" fill="white"/>
<path d="M740.336 666.208C745.056 666.208 748.882 662.382 748.882 657.663C748.882 652.944 745.056 649.118 740.336 649.118C735.617 649.118 731.792 652.944 731.792 657.663C731.792 662.382 735.617 666.208 740.336 666.208Z" fill="white"/>
<path d="M915.876 452.396C921.816 452.396 926.631 447.581 926.631 441.641C926.631 435.701 921.816 430.886 915.876 430.886C909.936 430.886 905.121 435.701 905.121 441.641C905.121 447.581 909.936 452.396 915.876 452.396Z" fill="white"/>
<path d="M899.533 298.472C903.208 298.472 906.187 295.493 906.187 291.818C906.187 288.143 903.208 285.164 899.533 285.164C895.858 285.164 892.879 288.143 892.879 291.818C892.879 295.493 895.858 298.472 899.533 298.472Z" fill="white"/>
<path d="M645.931 640.455C649.055 640.455 651.586 637.923 651.586 634.8C651.586 631.677 649.055 629.145 645.931 629.145C642.808 629.145 640.276 631.677 640.276 634.8C640.276 637.923 642.808 640.455 645.931 640.455Z" fill="white"/>
</g>
<path d="M311.712 355.136C311.419 355.098 308.172 408.98 245.576 404.282C202.241 401.036 186.79 355.06 185.797 355.06C190.47 354.067 196.244 352.56 198.538 352.043C206.162 350.325 215.679 344.034 217.878 330.782C219.146 323.145 216.996 284.071 217.657 276.344L284.176 291.191C283.246 307.511 276.741 345.346 299.541 352.042C303.335 353.15 307.421 354.168 311.712 355.136Z" fill="#E0977B"/>
<path opacity="0.52" d="M285.108 336.58C284.067 333.222 283.396 329.76 283.108 326.256C282.377 318.26 282.522 310.208 283.543 302.244C270.023 300.419 257.286 294.839 246.779 286.137C245.544 290.699 238.751 310.631 240.632 314.966C244.186 323.161 260.892 336.58 285.108 336.58Z" fill="#0C0C0C"/>
<path d="M210.773 208C210.773 208 184.812 193.468 189.586 166.99C193.282 146.49 225.967 163.56 225.967 163.56C225.967 163.56 228.934 148.811 250.424 152.632C271.913 156.453 277 172.83 277 172.83" fill="#0C0C0C"/>
<path d="M215.474 165.786C215.474 165.786 152.21 187.663 195.88 270.163L201.708 269.227L213.538 267.327" fill="#0C0C0C"/>
<path d="M276.276 318.335C250.176 321.926 215.847 312.809 207.419 278.196L199.814 246.964C191.386 212.35 202.733 179.864 235.324 171.928C267.914 163.992 299.106 186.121 307.534 220.734L310.901 234.561C311.974 239.328 312.721 244.164 313.137 249.033C314.331 261.894 316.096 281.459 310.58 296.238C305.372 310.19 292.952 316.042 276.276 318.335Z" fill="#E0977B"/>
<path opacity="0.52" d="M281.804 288.785C287.196 288.201 292.281 286.876 296.649 284.916C296.832 284.837 296.955 284.718 296.99 284.585C297.025 284.452 296.969 284.316 296.835 284.208C296.701 284.099 296.499 284.027 296.275 284.006C296.05 283.985 295.821 284.018 295.638 284.098C286.171 288.175 276.49 289.085 267.641 286.73C267.462 286.68 267.278 286.634 267.09 286.595C266.874 286.559 266.643 286.574 266.446 286.638C266.249 286.702 266.102 286.809 266.037 286.936C265.972 287.063 265.994 287.2 266.098 287.318C266.202 287.435 266.38 287.524 266.594 287.565C266.662 287.579 266.778 287.611 266.938 287.654C271.593 288.898 276.769 289.292 281.804 288.785Z" fill="#0C0C0C"/>
<path d="M301.98 238.079C304.261 238.079 306.111 236.229 306.111 233.948C306.111 231.666 304.261 229.817 301.98 229.817C299.698 229.817 297.849 231.666 297.849 233.948C297.849 236.229 299.698 238.079 301.98 238.079Z" fill="#0C0C0C"/>
<path d="M262.706 247.343C264.987 247.343 266.837 245.493 266.837 243.212C266.837 240.93 264.987 239.081 262.706 239.081C260.424 239.081 258.575 240.93 258.575 243.212C258.575 245.493 260.424 247.343 262.706 247.343Z" fill="#0C0C0C"/>
<path d="M212.011 288.248C202.111 290.659 191.498 282.019 189.086 272.115C186.674 262.211 193.374 254.794 203.278 252.382L210 257.776L220.529 286.176L212.011 288.248Z" fill="#E0977B"/>
<path d="M218.221 270.013C218.221 270.013 210.274 220.119 224.471 213.659C233.926 209.359 261.22 217.893 282.525 208.517C291.846 204.417 301.656 204.699 303.656 209.087C304.449 210.825 304.494 183.227 284.656 166.854C268.856 153.819 228.056 158.499 211.156 167.854C164.356 193.754 201.732 255.017 201.732 255.017L207.863 271.438L218.221 270.013Z" fill="#0C0C0C"/>
<g opacity="0.52">
<path d="M284.179 270.9L284.243 270.887C287.436 270.119 292.707 268.473 292.135 266.087C291.657 264.108 281.095 244.044 279.891 241.763C279.784 241.572 279.607 241.431 279.398 241.37C279.189 241.308 278.964 241.33 278.771 241.432C278.578 241.534 278.432 241.707 278.365 241.915C278.298 242.122 278.314 242.348 278.411 242.544C283.097 251.428 290.183 265.134 290.511 266.479C290.333 267.119 287.162 268.468 283.855 269.264C283.646 269.315 283.465 269.446 283.349 269.627C283.234 269.809 283.193 270.029 283.235 270.24C283.277 270.451 283.399 270.638 283.575 270.762C283.752 270.885 283.969 270.936 284.182 270.904L284.179 270.9Z" fill="#0C0C0C"/>
</g>
<path d="M289.046 226.889C291.314 225.148 294.002 224.036 296.837 223.665C298.279 223.464 299.743 223.483 301.179 223.721C302.643 223.957 304.071 224.375 305.431 224.967L305.537 225.009C305.884 225.148 306.272 225.148 306.619 225.008C306.966 224.867 307.245 224.598 307.398 224.256C307.55 223.914 307.564 223.526 307.436 223.174C307.308 222.822 307.049 222.533 306.713 222.369C305.164 221.55 303.517 220.93 301.813 220.524C300.079 220.104 298.293 219.948 296.513 220.059C294.727 220.151 292.963 220.487 291.269 221.059C289.52 221.629 287.862 222.446 286.344 223.486C285.868 223.812 285.542 224.314 285.436 224.881C285.331 225.449 285.455 226.035 285.781 226.51C286.108 226.986 286.61 227.312 287.177 227.418C287.744 227.523 288.33 227.399 288.806 227.073C288.851 227.042 288.895 227.009 288.938 226.973L289.046 226.889Z" fill="#0C0C0C"/>
<path d="M264.548 228.385C262.737 228.058 260.889 227.993 259.061 228.19C257.281 228.362 255.533 228.778 253.867 229.426C252.199 230.054 250.635 230.928 249.228 232.021C247.838 233.089 246.589 234.33 245.512 235.713C245.273 236 245.154 236.369 245.182 236.742C245.209 237.115 245.379 237.463 245.658 237.713C245.936 237.962 246.3 238.095 246.673 238.082C247.047 238.069 247.401 237.912 247.662 237.644L247.746 237.557C248.743 236.46 249.874 235.493 251.113 234.679C252.325 233.872 253.653 233.254 255.051 232.847C257.788 232.023 260.695 231.936 263.478 232.594L263.607 232.628C264.164 232.774 264.758 232.694 265.256 232.403C265.754 232.112 266.117 231.636 266.264 231.078C266.41 230.52 266.329 229.926 266.039 229.428C265.748 228.93 265.271 228.567 264.714 228.421C264.66 228.407 264.6 228.4 264.548 228.385Z" fill="#0C0C0C"/>
<path d="M279.877 197.15C286.876 193.923 288.698 182.955 283.947 172.653C279.196 162.351 269.671 156.617 262.672 159.844C255.674 163.072 253.851 174.04 258.602 184.341C263.353 194.643 272.878 200.378 279.877 197.15Z" fill="#0C0C0C"/>
<path d="M371.908 364.282C358.538 356.362 309.108 352.042 299.538 352.042C299.248 352.042 303.188 393.672 244.148 390.892C200.768 388.842 198.948 352.042 198.948 352.042C198.948 352.042 177.468 353.432 163.178 355.362C139.788 358.532 118.078 372.272 104.928 395.142C91.7478 418.062 95.7278 433.372 101.068 481.392C105.938 525.172 111.588 616.022 113.938 655.842C116.698 657.992 119.504 660.102 122.358 662.172C124.11 663.442 125.88 664.696 127.669 665.932C127.799 666.022 127.927 666.114 128.058 666.203C129.815 667.417 131.589 668.612 133.381 669.789C133.468 669.846 133.552 669.905 133.638 669.962C163.201 689.369 197.213 703.775 233.893 706.112C292.863 709.882 332.663 689.642 375.773 674.132C375.683 671.422 375.633 669.972 375.633 669.972L375.308 669.962H376.023C377.913 641.432 384.443 496.922 386.423 473.762C390.608 424.672 408.338 385.862 371.908 364.282Z" fill="#C95776"/>
<path d="M614.588 419.94C614.965 418.899 615.551 417.947 616.309 417.14C617.067 416.334 617.981 415.69 618.996 415.248C620.011 414.807 621.105 414.576 622.211 414.572C623.318 414.567 624.414 414.788 625.433 415.221C627.375 416.127 628.901 417.737 629.702 419.725C630.503 421.713 630.52 423.931 629.748 425.931L626 436.273L649.572 412.238C652.502 409.161 658.065 407.26 661.299 410.773C664.099 413.441 670.577 414.263 671.628 419.263C671.664 419.289 671.598 465.051 668.881 467.904C657.351 480.012 629.481 482.354 613.933 476.204L589.462 466.528L614.588 419.94Z" fill="#E0977B"/>
<g opacity="0.1">
<path d="M614.588 422.94C614.965 421.9 615.551 420.947 616.309 420.14C617.067 419.334 617.981 418.69 618.996 418.248C620.011 417.807 621.105 417.577 622.211 417.572C623.318 417.567 624.414 417.788 625.433 418.221C627.375 419.127 628.901 420.737 629.702 422.725C630.503 424.713 630.52 426.931 629.748 428.931L626 439.273L649.572 415.238C652.502 412.161 658.065 410.26 661.299 413.773C664.099 416.441 670.577 417.263 671.628 422.263C671.664 422.289 671.598 468.051 668.881 470.904C657.351 483.012 629.481 485.354 613.933 479.204L589.462 469.528L614.588 422.94Z" fill="#0C0C0C"/>
</g>
<path d="M637.675 448.556C638.071 447.157 638.912 445.925 640.072 445.049C641.232 444.172 642.646 443.699 644.1 443.7C644.081 443.584 643.955 443.315 644.157 443.294L639.15 440.862C637.659 440.177 636.466 438.977 635.792 437.481C635.118 435.986 635.007 434.297 635.481 432.727C636 431.192 637.071 429.904 638.485 429.113C639.9 428.322 641.557 428.084 643.137 428.446C643.115 428.385 643.147 428.317 643.145 428.251L641.088 427.251C639.686 426.6 638.552 425.485 637.878 424.094C637.204 422.703 637.031 421.122 637.388 419.618C637.632 418.679 638.08 417.807 638.702 417.063C639.324 416.319 640.103 415.723 640.983 415.316C641.863 414.91 642.822 414.704 643.791 414.713C644.761 414.722 645.716 414.947 646.588 415.37L651.337 417.676C651.345 417.648 651.328 417.621 651.337 417.595C651.346 417.569 651.394 417.553 651.413 417.523C650.255 416.597 649.447 415.305 649.119 413.858C648.792 412.412 648.966 410.898 649.613 409.564C651.058 406.01 655.779 405.876 658.849 407.364L668.156 412.812C669.592 413.653 670.798 414.836 671.667 416.256C672.535 417.676 673.039 419.288 673.133 420.95C673.963 435.328 675.233 472.932 665.433 468.174L641.311 456.46C639.913 455.734 638.796 454.562 638.138 453.131C637.479 451.7 637.317 450.09 637.675 448.556Z" fill="#E0977B"/>
<path d="M593 464L469 572L390.688 383.7L308.212 431.957L419.712 622.512L420.552 623.965C424.076 629.9 428.874 634.979 434.6 638.835C440.325 642.691 446.835 645.229 453.66 646.264C460.484 647.3 467.454 646.807 474.065 644.823C480.677 642.839 486.765 639.411 491.892 634.789L648.381 495.323L593 464Z" fill="#D37C59"/>
<path d="M448.471 500.695L448.946 500.537L448.788 500.062L409.153 381.577C405.64 371.075 396.71 363.303 385.824 361.271L356.984 355.888C335.415 351.862 316.779 371.245 321.649 392.64L353.334 531.834L353.456 532.371L353.979 532.197L448.471 500.695Z" fill="#C95776" stroke="black"/>
<path d="M306.218 380.549C309.62 367.279 321.579 358 335.278 358L364.486 358C377.428 358 388.911 366.299 392.971 378.588L426.639 480.484L329.259 513.313L292 436L306.218 380.549Z" fill="#C95776"/>
<path d="M398.234 488.589C398.589 487.61 399.14 486.713 399.853 485.954C400.567 485.195 401.427 484.589 402.382 484.173C403.337 483.758 404.367 483.541 405.408 483.536C406.45 483.532 407.481 483.74 408.44 484.147C410.268 485 411.704 486.515 412.458 488.386C413.212 490.257 413.227 492.345 412.501 494.227L410.436 499.919L427.071 490.437C430.91 487.762 436.522 486.671 440.171 488.72C443.997 490.868 446.841 495.858 447.83 500.564C447.864 500.589 450.595 521.851 445.839 532.55C439.446 546.927 410.226 559.584 395.594 553.798L372.564 544.692L398.234 488.589Z" fill="#E0977B"/>
<path d="M384.007 522.633H383.978C383.863 522.629 383.751 522.603 383.647 522.556C383.542 522.509 383.448 522.441 383.37 522.358C383.292 522.274 383.232 522.176 383.192 522.068C383.152 521.961 383.133 521.847 383.138 521.733L384.875 468.557C384.888 468.328 384.989 468.112 385.156 467.956C385.324 467.799 385.545 467.714 385.775 467.717C385.889 467.72 386.002 467.746 386.106 467.794C386.21 467.841 386.304 467.908 386.382 467.992C386.46 468.076 386.521 468.174 386.561 468.281C386.601 468.388 386.619 468.502 386.615 468.617L384.878 521.793C384.87 522.018 384.775 522.232 384.613 522.389C384.45 522.546 384.233 522.633 384.007 522.633Z" fill="#0C0C0C"/>
<path d="M381 522.5L236 551.5L196.062 406.304L100.268 444.94L171.886 612.171L172.87 614.471C177.541 625.286 186.158 633.916 196.966 638.605C207.775 643.293 219.963 643.688 231.053 639.709L399 554.5L381 522.5Z" fill="#E0977B"/>
<path d="M211.526 559.486C211.316 559.488 211.113 559.415 210.953 559.28C210.793 559.144 210.687 558.956 210.656 558.748C210.624 558.541 210.669 558.33 210.781 558.153C210.893 557.976 211.066 557.845 211.267 557.786L235.903 550.086C236.12 550.026 236.352 550.052 236.55 550.16C236.748 550.268 236.896 550.449 236.964 550.664C237.031 550.879 237.012 551.112 236.911 551.314C236.809 551.515 236.634 551.669 236.421 551.744L211.784 559.444C211.701 559.471 211.614 559.485 211.526 559.486Z" fill="#0C0C0C"/>
<mask id="mask0_915_5262" style="mask-type:alpha" maskUnits="userSpaceOnUse" x="-1" y="0" width="987" height="730">
<path d="M26.0408 554.4C-30.9242 438.935 4.5098 307.928 142.794 261.912C249.048 226.553 412.005 223.591 479.814 114.974C589.731 -61.0951 864.266 -41.4071 962.871 218.938C1052.59 455.831 866.249 832.265 614.228 702.78C404.216 594.88 370.428 714.831 233.893 706.107C128.6 699.379 45.2578 593.352 26.0408 554.4Z" fill="white"/>
</mask>
<g mask="url(#mask0_915_5262)">
<path d="M758.423 847.979H494.956V800.579L438 800.896L438.254 747.915L490.051 747.852V695.252H541.975L543.285 644.829L593.92 644.702L593.455 594.765L665.78 594.533L666.266 548H758.423V847.979Z" fill="#FFCD52"/>
<path d="M494.448 803.581H590.431V847.979H494.448V803.581ZM598.698 803.581H694.681V847.979H598.698V803.581ZM761.784 848H701.552V803.603H761.784V812.059C761.781 815.7 761.017 819.301 759.543 822.63C757.854 826.448 757.103 830.614 757.353 834.781C757.603 838.949 758.847 842.995 760.981 846.583L761.784 848ZM438 751.911H533.983V796.309H438V751.911ZM541.256 751.911H637.239V796.309H541.256V751.911ZM645.104 750.875H741.087V795.273H645.104V750.875ZM490.495 699.712H586.478V744.11H490.495V699.712ZM542.44 648.444H638.423V692.841H542.44V648.444ZM592.799 598.211H688.782V642.609H592.799V598.211ZM761.784 642.63H694.765V598.233H761.784V607.831C761.781 611.035 761.157 614.209 759.945 617.175L759.163 619.142C757.609 622.965 757.035 627.117 757.493 631.219C757.95 635.32 759.426 639.243 761.784 642.63ZM761.552 592.397H665.569V548H761.552L757.556 557.471C756.421 560.246 755.952 563.248 756.187 566.237C756.422 569.226 757.354 572.118 758.909 574.681C760.583 577.41 761.468 580.549 761.467 583.751L761.552 592.397ZM643.92 648.444H739.903V692.841H643.92V648.444ZM761.784 692.841H745.125V648.444H761.784L764.216 655.907C765.782 660.678 765.526 665.859 763.497 670.452C762.372 673.034 761.789 675.819 761.784 678.634V692.841ZM761.784 795.273H746.372V750.875H761.784L760.833 754.258C758.767 761.556 758.65 769.268 760.495 776.626C761.349 780.084 761.782 783.634 761.784 787.197V795.273ZM594.364 698.677H690.347V743.074H594.364V698.677ZM761.784 743.137H697.323V698.74H761.784V708.507C761.781 711.961 762.382 715.388 763.56 718.634C766.183 725.815 765.925 733.732 762.841 740.727L761.784 743.137Z" fill="#FF8721"/>
<path d="M738.961 847.979H1003.46V800.579L1060.64 800.896L1060.39 747.915L1008.39 747.852V695.252H956.26L954.944 644.829L904.111 644.702L904.578 594.765L831.968 594.533L831.479 548H738.961V847.979Z" fill="#FFCD52"/>
<path d="M1003.97 803.581H907.613V847.979H1003.97V803.581ZM899.314 803.581H802.953V847.979H899.314V803.581ZM735.586 848H796.055V803.603H735.586V812.059C735.589 815.7 736.356 819.301 737.836 822.63C739.532 826.448 740.286 830.614 740.035 834.781C739.784 838.949 738.535 842.995 736.392 846.583L735.586 848ZM1060.64 751.911H964.283V796.309H1060.64V751.911ZM956.982 751.911H860.621V796.309H956.982V751.911ZM852.726 750.875H756.365V795.273H852.726V750.875ZM1007.94 699.712H911.582V744.11H1007.94V699.712ZM955.793 648.444H859.433V692.841H955.793V648.444ZM905.236 598.211H808.875V642.609H905.236V598.211ZM735.586 642.63H802.868V598.233H735.586V607.831C735.589 611.035 736.216 614.209 737.432 617.175L738.218 619.142C739.778 622.965 740.354 627.117 739.895 631.219C739.435 635.32 737.954 639.243 735.586 642.63ZM735.819 592.397H832.18V548H735.819L739.831 557.471C740.971 560.246 741.442 563.248 741.206 566.237C740.97 569.226 740.034 572.118 738.472 574.681C736.792 577.41 735.903 580.549 735.904 583.751L735.819 592.397ZM853.914 648.444H757.554V692.841H853.914V648.444ZM735.586 692.841H752.311V648.444H735.586L733.145 655.907C731.573 660.678 731.83 665.859 733.867 670.452C734.996 673.034 735.581 675.819 735.586 678.634V692.841ZM735.586 795.273H751.059V750.875H735.586L736.541 754.258C738.615 761.556 738.732 769.268 736.881 776.626C736.023 780.084 735.588 783.634 735.586 787.197V795.273ZM903.665 698.677H807.304V743.074H903.665V698.677ZM735.586 743.137H800.3V698.74H735.586V708.507C735.589 711.961 734.986 715.388 733.803 718.634C731.17 725.815 731.429 733.732 734.525 740.727L735.586 743.137Z" fill="#FF8721"/>
<path d="M859.423 743.979H595.956V696.579L539 696.896L539.254 643.915L591.051 643.852V591.252H642.975L644.285 540.829L694.92 540.702L694.455 490.765L766.78 490.533L767.266 444H859.423V743.979Z" fill="#FFCD52"/>
<path d="M595.448 699.581H691.431V743.979H595.448V699.581ZM699.698 699.581H795.681V743.979H699.698V699.581ZM862.784 744H802.552V699.603H862.784V708.059C862.781 711.7 862.017 715.301 860.543 718.63C858.854 722.448 858.103 726.614 858.353 730.781C858.603 734.949 859.847 738.995 861.981 742.583L862.784 744ZM539 647.911H634.983V692.309H539V647.911ZM642.256 647.911H738.239V692.309H642.256V647.911ZM746.104 646.875H842.087V691.273H746.104V646.875ZM591.495 595.712H687.478V640.11H591.495V595.712ZM643.44 544.444H739.423V588.841H643.44V544.444ZM693.799 494.211H789.782V538.609H693.799V494.211ZM862.784 538.63H795.765V494.233H862.784V503.831C862.781 507.035 862.157 510.209 860.945 513.175L860.163 515.142C858.609 518.965 858.035 523.117 858.493 527.219C858.95 531.32 860.426 535.243 862.784 538.63ZM862.552 488.397H766.569V444H862.552L858.556 453.471C857.421 456.246 856.952 459.248 857.187 462.237C857.422 465.226 858.354 468.118 859.909 470.681C861.583 473.41 862.468 476.549 862.467 479.751L862.552 488.397ZM744.92 544.444H840.903V588.841H744.92V544.444ZM862.784 588.841H846.125V544.444H862.784L865.216 551.907C866.782 556.678 866.526 561.859 864.497 566.452C863.372 569.034 862.789 571.819 862.784 574.634V588.841ZM862.784 691.273H847.372V646.875H862.784L861.833 650.258C859.767 657.556 859.65 665.268 861.495 672.626C862.349 676.084 862.782 679.634 862.784 683.197V691.273ZM695.364 594.677H791.347V639.074H695.364V594.677ZM862.784 639.137H798.323V594.74H862.784V604.507C862.781 607.961 863.382 611.388 864.56 614.634C867.183 621.815 866.925 629.732 863.841 636.727L862.784 639.137Z" fill="#FF8721"/>
<path d="M839.961 743.979H1104.46V696.579L1161.64 696.896L1161.39 643.915L1109.39 643.852V591.252H1057.26L1055.94 540.829L1005.11 540.702L1005.58 490.765L932.968 490.533L932.479 444H839.961V743.979Z" fill="#FFCD52"/>
<path d="M1104.97 699.581H1008.61V743.979H1104.97V699.581ZM1000.31 699.581H903.953V743.979H1000.31V699.581ZM836.586 744H897.055V699.603H836.586V708.059C836.589 711.7 837.356 715.301 838.836 718.63C840.532 722.448 841.286 726.614 841.035 730.781C840.784 734.949 839.535 738.995 837.392 742.583L836.586 744ZM1161.64 647.911H1065.28V692.309H1161.64V647.911ZM1057.98 647.911H961.621V692.309H1057.98V647.911ZM953.726 646.875H857.365V691.273H953.726V646.875ZM1108.94 595.712H1012.58V640.11H1108.94V595.712ZM1056.79 544.444H960.433V588.841H1056.79V544.444ZM1006.24 494.211H909.875V538.609H1006.24V494.211ZM836.586 538.63H903.868V494.233H836.586V503.831C836.589 507.035 837.216 510.209 838.432 513.175L839.218 515.142C840.778 518.965 841.354 523.117 840.895 527.219C840.435 531.32 838.954 535.243 836.586 538.63ZM836.819 488.397H933.18V444H836.819L840.831 453.471C841.971 456.246 842.442 459.248 842.206 462.237C841.97 465.226 841.034 468.118 839.472 470.681C837.792 473.41 836.903 476.549 836.904 479.751L836.819 488.397ZM954.914 544.444H858.554V588.841H954.914V544.444ZM836.586 588.841H853.311V544.444H836.586L834.145 551.907C832.573 556.678 832.83 561.859 834.867 566.452C835.996 569.034 836.581 571.819 836.586 574.634V588.841ZM836.586 691.273H852.059V646.875H836.586L837.541 650.258C839.615 657.556 839.732 665.268 837.881 672.626C837.023 676.084 836.588 679.634 836.586 683.197V691.273ZM1004.67 594.677H908.304V639.074H1004.67V594.677ZM836.586 639.137H901.3V594.74H836.586V604.507C836.589 607.961 835.986 611.388 834.803 614.634C832.17 621.815 832.429 629.732 835.525 636.727L836.586 639.137Z" fill="#FF8721"/>
</g>
<path d="M234.472 532.695L234.946 532.536L234.788 532.062L199.325 426.049C193.881 409.777 176.092 401.195 159.968 407.064L120.02 421.604C104.191 427.365 96.0295 444.867 101.791 460.696L139.351 563.894L139.518 564.351L139.979 564.197L234.472 532.695Z" fill="#C95776" stroke="black"/>
<path d="M97.2606 433.396C91.5938 417.827 99.6214 400.611 115.191 394.944L157.72 379.465C173.772 373.623 191.456 382.343 196.592 398.635L213.783 453.16L116.667 486.714L97.2606 433.396Z" fill="#C95776"/>
<g filter="url(#filter0_d_915_5262)">
<mask id="path-57-inside-1_915_5262" fill="white">
<path d="M244.996 245.598C244.612 243.423 246.065 241.348 248.241 240.964L269.906 237.144C272.082 236.76 274.156 238.213 274.54 240.389L276.624 252.206C277.007 254.382 275.555 256.457 273.379 256.84L251.713 260.66C249.538 261.044 247.463 259.591 247.08 257.416L244.996 245.598Z"/>
</mask>
<path d="M244.996 245.598C244.42 242.335 246.599 239.223 249.863 238.647L267.589 235.522C270.853 234.946 273.965 237.125 274.54 240.389C274.348 239.301 272.429 238.73 270.254 239.114L248.588 242.934C246.412 243.318 244.804 244.51 244.996 245.598ZM277.318 256.146L247.774 261.355L277.318 256.146ZM247.774 261.355L244.301 241.659L247.774 261.355ZM273.846 236.449L277.318 256.146L273.846 236.449Z" fill="black" mask="url(#path-57-inside-1_915_5262)"/>
</g>
<mask id="path-59-inside-2_915_5262" fill="white">
<path d="M244.996 245.598C244.612 243.423 246.065 241.348 248.241 240.964L269.906 237.144C272.082 236.76 274.156 238.213 274.54 240.389L276.624 252.206C277.007 254.382 275.555 256.457 273.379 256.84L251.713 260.66C249.538 261.044 247.463 259.591 247.08 257.416L244.996 245.598Z"/>
</mask>
<path d="M244.301 241.659L273.846 236.449L244.301 241.659ZM276.624 252.206C277.103 254.926 275.288 257.519 272.568 257.999L252.872 261.472C250.152 261.951 247.559 260.135 247.08 257.416C247.367 259.048 249.364 260.059 251.54 259.676L273.206 255.855C275.381 255.472 276.912 253.838 276.624 252.206ZM247.774 261.355L244.301 241.659L247.774 261.355ZM273.846 236.449L277.318 256.146L273.846 236.449Z" fill="black" fill-opacity="0.1" mask="url(#path-59-inside-2_915_5262)"/>
<g filter="url(#filter1_d_915_5262)">
<mask id="path-61-inside-3_915_5262" fill="white">
<path d="M281.574 239.148C281.191 236.973 282.644 234.898 284.819 234.515L306.485 230.694C308.66 230.311 310.735 231.763 311.119 233.939L313.202 245.757C313.586 247.932 312.133 250.007 309.958 250.391L288.292 254.211C286.116 254.594 284.042 253.142 283.658 250.966L281.574 239.148Z"/>
</mask>
<path d="M281.574 239.148C280.999 235.885 283.178 232.773 286.441 232.198L304.168 229.072C307.431 228.497 310.543 230.676 311.119 233.939C310.927 232.851 309.008 232.28 306.832 232.664L285.166 236.484C282.991 236.868 281.383 238.061 281.574 239.148ZM313.897 249.696L284.353 254.905L313.897 249.696ZM284.353 254.905L280.88 235.209L284.353 254.905ZM310.424 230L313.897 249.696L310.424 230Z" fill="black" mask="url(#path-61-inside-3_915_5262)"/>
</g>
<mask id="path-63-inside-4_915_5262" fill="white">
<path d="M281.574 239.148C281.191 236.973 282.644 234.898 284.819 234.515L306.485 230.694C308.66 230.311 310.735 231.763 311.119 233.939L313.202 245.757C313.586 247.932 312.133 250.007 309.958 250.391L288.292 254.211C286.116 254.594 284.042 253.142 283.658 250.966L281.574 239.148Z"/>
</mask>
<path d="M280.88 235.209L310.424 230L280.88 235.209ZM313.202 245.757C313.682 248.476 311.866 251.069 309.147 251.549L289.451 255.022C286.731 255.501 284.138 253.686 283.658 250.966C283.946 252.598 285.943 253.61 288.118 253.226L309.784 249.406C311.96 249.022 313.49 247.388 313.202 245.757ZM284.353 254.905L280.88 235.209L284.353 254.905ZM310.424 230L313.897 249.696L310.424 230Z" fill="black" fill-opacity="0.1" mask="url(#path-63-inside-4_915_5262)"/>
<line x1="275.247" y1="244.398" x2="282.281" y2="243.158" stroke="black"/>
<line x1="201.892" y1="248.652" x2="244.594" y2="244.024" stroke="black" stroke-width="2"/>
</g>
<defs>
<filter id="filter0_d_915_5262" x="240.935" y="237.083" width="39.751" height="35.6392" filterUnits="userSpaceOnUse" color-interpolation-filters="sRGB">
<feFlood flood-opacity="0" result="BackgroundImageFix"/>
<feColorMatrix in="SourceAlpha" type="matrix" values="0 0 0 0 0 0 0 0 0 0 0 0 0 0 0 0 0 0 127 0" result="hardAlpha"/>
<feOffset dy="8"/>
<feGaussianBlur stdDeviation="2"/>
<feComposite in2="hardAlpha" operator="out"/>
<feColorMatrix type="matrix" values="0 0 0 0 0 0 0 0 0 0 0 0 0 0 0 0 0 0 1 0"/>
<feBlend mode="normal" in2="BackgroundImageFix" result="effect1_dropShadow_915_5262"/>
<feBlend mode="normal" in="SourceGraphic" in2="effect1_dropShadow_915_5262" result="shape"/>
</filter>
<filter id="filter1_d_915_5262" x="281.513" y="230.633" width="39.751" height="35.6392" filterUnits="userSpaceOnUse" color-interpolation-filters="sRGB">
<feFlood flood-opacity="0" result="BackgroundImageFix"/>
<feColorMatrix in="SourceAlpha" type="matrix" values="0 0 0 0 0 0 0 0 0 0 0 0 0 0 0 0 0 0 127 0" result="hardAlpha"/>
<feOffset dx="4" dy="8"/>
<feGaussianBlur stdDeviation="2"/>
<feComposite in2="hardAlpha" operator="out"/>
<feColorMatrix type="matrix" values="0 0 0 0 0 0 0 0 0 0 0 0 0 0 0 0 0 0 1 0"/>
<feBlend mode="normal" in2="BackgroundImageFix" result="effect1_dropShadow_915_5262"/>
<feBlend mode="normal" in="SourceGraphic" in2="effect1_dropShadow_915_5262" result="shape"/>
</filter>
<clipPath id="clip0_915_5262">
<rect width="985.74" height="729.187" fill="white"/>
</clipPath>
</defs>
</svg>
